<svg xmlns="http://www.w3.org/2000/svg" viewBox="0 0 2048 1262" width="2048" height="1262"><g transform="translate(0, 0)"><path d="M 2020 939 L 1997 921 L 1983 914 L 1955 905 L 1927 901 L 1789 901 L 1780 932 L 1773 950 L 1773 954 L 1769 963 L 1769 967 L 1765 976 L 1765 980 L 1761 989 L 1761 993 L 1757 1001 L 1753 1018 L 1749 1026 L 1749 1031 L 1745 1039 L 1745 1044 L 1737 1065 L 1737 1069 L 1733 1078 L 1729 1095 L 1721 1116 L 1721 1120 L 1717 1129 L 1713 1146 L 1709 1154 L 1709 1159 L 1705 1168 L 1705 1172 L 1702 1177 L 1701 1184 L 1693 1205 L 1693 1209 L 1689 1218 L 1689 1222 L 1685 1231 L 1685 1235 L 1681 1244 L 1678 1257 L 1824 1257 L 1848 1256 L 1867 1252 L 1874 1252 L 1886 1248 L 1892 1248 L 1924 1236 L 1947 1224 L 1973 1204 L 1996 1180 L 1996 1178 L 1999 1176 L 2015 1151 L 2024 1133 L 2024 1130 L 2028 1124 L 2036 1100 L 2044 1068 L 2044 1059 L 2047 1048 L 2047 994 L 2044 987 L 2044 981 L 2040 973 L 2040 969 L 2036 964 L 2036 961 L 2032 954 Z M 1936 984 L 1949 997 L 1955 1009 L 1958 1025 L 1958 1046 L 1956 1062 L 1949 1090 L 1945 1097 L 1944 1103 L 1928 1132 L 1915 1148 L 1902 1160 L 1891 1168 L 1874 1177 L 1847 1185 L 1789 1186 L 1788 1181 L 1792 1172 L 1792 1168 L 1796 1159 L 1796 1155 L 1800 1146 L 1804 1129 L 1808 1121 L 1808 1117 L 1812 1108 L 1816 1091 L 1820 1083 L 1820 1078 L 1824 1069 L 1829 1049 L 1832 1044 L 1832 1039 L 1836 1031 L 1836 1026 L 1840 1018 L 1840 1014 L 1844 1005 L 1849 985 L 1852 980 L 1853 973 L 1899 972 L 1913 976 L 1919 976 Z M 1661 917 L 1640 905 L 1613 897 L 1573 894 L 1532 898 L 1524 901 L 1518 901 L 1509 905 L 1505 905 L 1471 921 L 1457 930 L 1455 933 L 1453 933 L 1439 945 L 1417 969 L 1417 971 L 1414 973 L 1398 998 L 1381 1035 L 1381 1039 L 1377 1046 L 1377 1051 L 1369 1075 L 1361 1119 L 1361 1164 L 1365 1178 L 1365 1183 L 1369 1195 L 1373 1201 L 1373 1204 L 1377 1209 L 1377 1212 L 1389 1228 L 1401 1239 L 1421 1251 L 1449 1260 L 1530 1260 L 1542 1256 L 1547 1256 L 1556 1252 L 1560 1252 L 1594 1236 L 1598 1232 L 1612 1224 L 1640 1197 L 1660 1170 L 1672 1148 L 1672 1145 L 1676 1140 L 1676 1137 L 1684 1120 L 1696 1080 L 1696 1073 L 1700 1060 L 1700 1049 L 1704 1025 L 1703 997 L 1700 984 L 1700 977 L 1696 965 L 1684 941 L 1678 933 Z M 1584 968 L 1596 976 L 1604 985 L 1611 1001 L 1614 1023 L 1613 1049 L 1609 1064 L 1609 1070 L 1605 1080 L 1604 1088 L 1601 1093 L 1601 1097 L 1598 1102 L 1597 1108 L 1593 1114 L 1593 1117 L 1581 1139 L 1569 1156 L 1552 1173 L 1541 1181 L 1524 1189 L 1504 1193 L 1480 1189 L 1471 1184 L 1461 1174 L 1457 1167 L 1452 1153 L 1450 1134 L 1452 1104 L 1456 1091 L 1456 1085 L 1464 1058 L 1468 1051 L 1472 1038 L 1475 1035 L 1484 1017 L 1492 1007 L 1492 1005 L 1509 987 L 1524 976 L 1541 968 L 1547 968 L 1557 965 L 1570 965 Z M 1312 918 L 1292 906 L 1264 897 L 1231 894 L 1186 897 L 1155 905 L 1126 918 L 1116 925 L 1114 925 L 1093 941 L 1073 961 L 1073 963 L 1069 966 L 1069 968 L 1058 981 L 1050 994 L 1048 1000 L 1046 1001 L 1030 1037 L 1017 1083 L 1010 1132 L 1011 1161 L 1013 1168 L 1013 1176 L 1017 1186 L 1017 1190 L 1029 1215 L 1034 1222 L 1050 1238 L 1073 1252 L 1098 1260 L 1180 1260 L 1212 1251 L 1244 1236 L 1264 1222 L 1274 1212 L 1276 1212 L 1291 1196 L 1301 1181 L 1304 1179 L 1314 1161 L 1316 1160 L 1316 1157 L 1320 1152 L 1320 1149 L 1324 1144 L 1324 1141 L 1331 1127 L 1344 1087 L 1344 1081 L 1348 1068 L 1348 1061 L 1352 1042 L 1353 1008 L 1352 991 L 1348 972 L 1344 964 L 1343 958 L 1331 937 Z M 1233 968 L 1242 973 L 1251 981 L 1257 990 L 1257 993 L 1261 1001 L 1263 1013 L 1263 1042 L 1261 1060 L 1257 1072 L 1257 1077 L 1245 1112 L 1241 1117 L 1241 1120 L 1237 1125 L 1236 1130 L 1233 1133 L 1229 1142 L 1225 1146 L 1225 1148 L 1202 1173 L 1191 1181 L 1174 1189 L 1169 1189 L 1161 1192 L 1149 1193 L 1129 1189 L 1122 1185 L 1112 1176 L 1105 1163 L 1100 1142 L 1100 1119 L 1104 1100 L 1104 1093 L 1108 1081 L 1108 1076 L 1112 1067 L 1112 1062 L 1114 1060 L 1117 1049 L 1120 1045 L 1124 1034 L 1136 1013 L 1139 1011 L 1148 998 L 1169 979 L 1191 968 L 1206 965 L 1220 965 Z M 1017 911 L 980 901 L 973 901 L 959 897 L 908 894 L 857 898 L 848 901 L 837 902 L 830 905 L 825 905 L 820 908 L 813 909 L 806 913 L 793 917 L 788 921 L 785 921 L 782 924 L 765 933 L 756 941 L 754 941 L 722 973 L 706 997 L 689 1033 L 689 1037 L 685 1045 L 677 1077 L 677 1086 L 673 1108 L 673 1140 L 677 1166 L 681 1176 L 681 1180 L 698 1212 L 717 1232 L 734 1244 L 750 1252 L 754 1252 L 762 1256 L 767 1256 L 778 1260 L 787 1261 L 872 1260 L 889 1256 L 897 1256 L 910 1252 L 916 1252 L 932 1247 L 932 1242 L 936 1234 L 936 1229 L 939 1224 L 944 1204 L 952 1183 L 952 1179 L 956 1171 L 956 1166 L 963 1148 L 969 1125 L 972 1120 L 972 1115 L 976 1107 L 976 1102 L 980 1094 L 980 1090 L 987 1072 L 993 1049 L 858 1049 L 838 1116 L 887 1116 L 888 1119 L 881 1137 L 877 1154 L 873 1162 L 873 1166 L 869 1174 L 867 1184 L 859 1189 L 834 1193 L 806 1189 L 795 1184 L 785 1177 L 776 1168 L 772 1159 L 769 1156 L 768 1150 L 764 1142 L 762 1128 L 762 1105 L 768 1072 L 776 1049 L 784 1033 L 794 1017 L 813 996 L 815 996 L 818 992 L 820 992 L 829 984 L 839 980 L 844 976 L 848 976 L 854 972 L 889 965 L 916 965 L 943 968 L 955 972 L 960 972 L 979 980 L 982 980 L 988 984 L 991 984 L 1000 957 L 1002 955 L 1004 947 L 1012 929 L 1012 925 L 1016 918 Z M 1237 445 L 1126 800 L 1212 800 L 1216 791 L 1216 786 L 1223 768 L 1225 757 L 1228 752 L 1228 747 L 1232 738 L 1232 733 L 1235 728 L 1240 708 L 1244 699 L 1244 695 L 1248 686 L 1248 681 L 1250 679 L 1252 669 L 1256 660 L 1288 661 L 1295 664 L 1301 670 L 1304 677 L 1309 725 L 1309 751 L 1313 800 L 1399 800 L 1396 778 L 1396 761 L 1392 732 L 1392 715 L 1388 687 L 1388 673 L 1384 659 L 1384 654 L 1376 637 L 1368 630 L 1362 629 L 1361 627 L 1372 624 L 1380 624 L 1389 620 L 1393 620 L 1401 616 L 1404 616 L 1417 608 L 1420 608 L 1429 600 L 1431 600 L 1447 582 L 1460 556 L 1464 536 L 1464 503 L 1460 489 L 1452 474 L 1443 465 L 1441 465 L 1439 462 L 1430 457 L 1407 449 L 1400 449 L 1380 445 Z M 1276 592 L 1280 582 L 1280 577 L 1284 568 L 1284 564 L 1288 555 L 1288 551 L 1292 542 L 1292 537 L 1301 512 L 1349 512 L 1363 516 L 1373 526 L 1377 539 L 1375 555 L 1368 570 L 1359 579 L 1344 587 L 1321 592 Z M 838 445 L 622 445 L 617 465 L 613 474 L 613 478 L 609 487 L 609 491 L 605 500 L 605 504 L 597 525 L 596 532 L 593 537 L 593 542 L 589 550 L 589 555 L 585 563 L 585 567 L 581 576 L 576 596 L 573 601 L 573 606 L 569 614 L 569 619 L 565 627 L 565 631 L 557 652 L 553 669 L 549 677 L 549 682 L 529 741 L 529 745 L 525 754 L 525 759 L 521 767 L 521 772 L 517 780 L 512 800 L 599 800 L 605 777 L 608 772 L 608 767 L 612 758 L 612 754 L 616 745 L 616 741 L 624 720 L 625 713 L 628 708 L 636 677 L 639 672 L 642 659 L 644 657 L 768 656 L 768 652 L 776 630 L 776 625 L 779 620 L 780 613 L 784 604 L 787 589 L 664 589 L 664 581 L 688 512 L 818 512 Z M 1099 457 L 1073 445 L 1069 445 L 1059 441 L 1051 441 L 1036 438 L 1005 438 L 980 441 L 968 445 L 962 445 L 930 457 L 901 474 L 899 477 L 897 477 L 885 487 L 861 513 L 861 515 L 858 517 L 853 526 L 849 530 L 841 544 L 825 579 L 825 583 L 821 591 L 821 595 L 817 604 L 817 609 L 813 620 L 813 626 L 809 639 L 809 647 L 805 665 L 805 705 L 813 739 L 821 753 L 821 756 L 829 765 L 829 767 L 837 776 L 840 777 L 847 784 L 858 791 L 878 800 L 883 800 L 893 804 L 901 804 L 915 807 L 948 807 L 973 804 L 985 800 L 991 800 L 1023 788 L 1038 780 L 1054 768 L 1056 768 L 1076 750 L 1096 726 L 1120 684 L 1120 681 L 1132 653 L 1132 649 L 1136 640 L 1136 634 L 1140 624 L 1140 617 L 1144 603 L 1144 593 L 1148 568 L 1148 552 L 1144 522 L 1136 499 L 1123 478 L 1116 472 L 1116 470 L 1113 469 L 1110 465 Z M 1028 512 L 1039 519 L 1049 530 L 1053 538 L 1057 553 L 1057 592 L 1053 609 L 1053 615 L 1049 625 L 1048 632 L 1045 637 L 1044 644 L 1037 658 L 1037 661 L 1025 683 L 1017 693 L 1017 695 L 996 717 L 988 723 L 968 733 L 963 733 L 954 736 L 937 736 L 925 733 L 914 727 L 904 716 L 897 700 L 895 686 L 896 649 L 900 635 L 900 629 L 908 602 L 916 583 L 928 561 L 936 551 L 936 549 L 945 539 L 966 521 L 985 512 L 1000 509 L 1016 509 Z M 1161 0 L 1157 16 L 1154 21 L 1153 28 L 1137 75 L 1137 79 L 1133 88 L 1133 92 L 1130 97 L 1129 104 L 1117 138 L 1117 142 L 1113 150 L 1113 155 L 1109 164 L 1109 168 L 1106 173 L 1105 180 L 1097 201 L 1097 205 L 1093 213 L 1093 217 L 1089 226 L 1089 231 L 1085 239 L 1085 244 L 1082 249 L 1081 256 L 1073 277 L 1073 281 L 1069 289 L 1069 293 L 1049 353 L 1049 357 L 1280 357 L 1284 350 L 1284 345 L 1287 340 L 1289 329 L 1292 324 L 1292 319 L 1300 297 L 1301 289 L 1157 289 L 1156 285 L 1164 264 L 1165 257 L 1168 252 L 1168 247 L 1172 239 L 1176 221 L 1181 209 L 1313 209 L 1315 207 L 1316 200 L 1324 179 L 1324 175 L 1332 155 L 1332 151 L 1336 141 L 1204 141 L 1204 133 L 1212 112 L 1213 105 L 1216 100 L 1217 93 L 1220 88 L 1221 81 L 1224 76 L 1225 69 L 1367 68 L 1387 0 Z M 1129 0 L 882 0 L 860 71 L 938 71 L 939 73 L 933 90 L 933 94 L 929 102 L 929 107 L 925 115 L 925 120 L 922 125 L 921 132 L 918 137 L 917 144 L 913 153 L 909 170 L 905 178 L 905 183 L 893 217 L 893 221 L 889 229 L 889 233 L 881 255 L 881 260 L 878 265 L 873 285 L 865 306 L 865 310 L 861 318 L 861 323 L 857 331 L 857 336 L 854 341 L 850 355 L 851 357 L 936 357 L 938 355 L 940 345 L 943 340 L 944 333 L 956 299 L 956 295 L 960 287 L 960 282 L 964 274 L 964 269 L 972 248 L 973 241 L 976 236 L 976 231 L 980 223 L 980 219 L 984 210 L 988 193 L 996 172 L 996 168 L 1000 159 L 1000 154 L 1004 146 L 1004 142 L 1012 121 L 1017 101 L 1020 96 L 1020 91 L 1024 83 L 1026 73 L 1028 71 L 1107 71 L 1120 32 L 1120 28 L 1124 20 L 1124 15 L 1127 10 Z M 848 0 L 761 0 L 761 3 L 757 11 L 757 16 L 754 21 L 753 28 L 749 37 L 749 41 L 745 49 L 745 54 L 741 62 L 741 67 L 737 76 L 737 80 L 733 89 L 733 93 L 729 102 L 729 106 L 725 115 L 721 132 L 718 137 L 713 157 L 709 166 L 709 170 L 705 179 L 705 183 L 701 192 L 701 196 L 697 205 L 697 209 L 693 218 L 693 222 L 689 231 L 689 235 L 685 244 L 685 248 L 682 253 L 677 273 L 673 282 L 673 286 L 669 295 L 669 300 L 665 308 L 665 312 L 661 321 L 661 325 L 657 334 L 655 344 L 653 346 L 651 357 L 738 356 Z M 406 0 L 405 7 L 401 15 L 401 20 L 398 25 L 397 32 L 389 53 L 389 57 L 385 65 L 385 70 L 381 78 L 381 83 L 377 91 L 377 96 L 374 101 L 369 121 L 365 129 L 365 133 L 357 155 L 357 159 L 349 179 L 349 184 L 341 205 L 341 210 L 337 218 L 337 223 L 333 231 L 329 248 L 325 256 L 325 260 L 321 269 L 320 276 L 317 281 L 317 285 L 313 294 L 313 298 L 309 307 L 309 311 L 305 320 L 305 324 L 294 357 L 376 356 L 380 340 L 384 331 L 384 327 L 388 318 L 388 313 L 391 308 L 393 297 L 400 278 L 400 273 L 404 264 L 405 257 L 408 252 L 408 248 L 412 239 L 412 234 L 424 200 L 424 195 L 432 173 L 433 165 L 436 160 L 436 155 L 440 147 L 440 142 L 450 114 L 452 115 L 453 130 L 457 146 L 457 156 L 461 173 L 461 184 L 465 201 L 465 211 L 468 222 L 469 238 L 473 256 L 473 265 L 477 282 L 477 291 L 481 308 L 481 317 L 485 334 L 485 344 L 488 357 L 594 357 L 596 355 L 596 351 L 600 342 L 600 338 L 608 316 L 608 312 L 612 304 L 612 299 L 616 291 L 616 286 L 620 278 L 624 261 L 632 240 L 632 235 L 636 227 L 636 222 L 640 214 L 640 209 L 644 201 L 644 197 L 652 176 L 656 159 L 660 151 L 660 147 L 664 138 L 669 117 L 676 100 L 676 95 L 680 87 L 680 82 L 688 62 L 688 57 L 696 36 L 696 32 L 700 23 L 700 18 L 704 10 L 706 0 L 625 0 L 550 245 L 548 244 L 548 233 L 544 216 L 544 206 L 540 187 L 540 177 L 536 160 L 536 149 L 532 132 L 532 122 L 524 77 L 524 67 L 520 50 L 520 38 L 516 20 L 514 0 Z M 355 0 L 269 0 L 269 4 L 265 13 L 264 20 L 261 25 L 260 32 L 257 37 L 257 42 L 253 51 L 249 68 L 247 70 L 245 80 L 242 85 L 241 92 L 221 151 L 221 155 L 217 163 L 217 168 L 214 173 L 209 193 L 205 201 L 197 227 L 193 233 L 193 236 L 180 260 L 161 281 L 147 289 L 134 292 L 121 292 L 109 289 L 96 278 L 92 272 L 89 263 L 88 241 L 93 221 L 96 216 L 96 211 L 104 189 L 104 185 L 112 164 L 113 157 L 116 152 L 116 147 L 120 139 L 120 135 L 124 126 L 128 109 L 132 101 L 132 96 L 136 88 L 136 84 L 140 75 L 140 71 L 144 62 L 148 45 L 152 37 L 152 33 L 156 25 L 157 17 L 160 12 L 163 0 L 75 0 L 73 10 L 65 31 L 65 35 L 61 43 L 61 47 L 53 67 L 53 72 L 50 77 L 49 84 L 41 105 L 41 109 L 37 117 L 33 134 L 25 154 L 25 159 L 21 168 L 21 172 L 18 177 L 17 184 L 13 193 L 5 225 L 2 247 L 0 248 L 0 289 L 2 290 L 5 305 L 9 312 L 9 315 L 25 336 L 35 344 L 50 352 L 76 360 L 85 360 L 102 363 L 140 362 L 172 356 L 177 353 L 183 352 L 189 348 L 192 348 L 206 340 L 210 336 L 212 336 L 236 314 L 244 304 L 244 302 L 247 300 L 268 264 L 268 261 L 276 247 L 282 229 L 284 227 L 284 223 L 288 216 L 288 212 L 292 204 L 304 168 L 304 163 L 308 155 L 308 150 L 312 142 L 312 137 L 315 132 L 320 112 L 324 103 L 324 99 L 328 91 L 328 86 L 332 78 L 332 73 L 336 64 L 337 57 L 340 52 L 340 47 L 344 39 L 344 34 L 348 26 L 348 21 L 351 16 Z" fill="#ffffff" fill-rule="evenodd"/></g></svg>