<svg version="1.2" xmlns="http://www.w3.org/2000/svg" viewBox="0 0 2629 1621" width="2629" height="1621"><style>.a{fill:#17458f}</style><path fill-rule="evenodd" class="a" d="m208 0l-0.6 2.8c-0.3 1.5-20.1 64.8-43.9 140.7-23.8 75.9-44.3 141.1-45.4 145-1.1 3.9-2.7 10.3-3.6 14.3-0.8 3.9-1.5 11.8-1.5 17.5 0 5.7 0.7 13.1 1.6 16.7 0.8 3.6 2.6 8.8 3.9 11.5 1.3 2.8 4.5 7.5 7.3 10.5 2.7 3 7.6 6.9 10.8 8.7 3.2 1.8 9.1 3.9 12.9 4.7 3.8 0.9 9.8 1.6 13.2 1.6 3.5 0 9.8-0.7 14-1.6 4.3-0.8 11-3 14.8-4.8 3.8-1.8 9.2-4.8 12-6.6 2.7-1.9 8.3-6.9 12.4-11 4-4.1 10.2-11.8 13.7-17 3.4-5.2 9.4-16 13.3-24 3.8-8 9.7-21.7 13-30.5 3.2-8.8 10.3-29.9 15.6-47 5.3-17.1 23.6-74.6 40.6-128 17.1-53.3 31.4-98.5 32.9-103.5h55c36 0 55 0.3 55 1 0 0.6-16.8 55.1-37.4 121.3-20.6 66.1-40.5 129-44.1 139.7-3.7 10.7-10 28.1-14.2 38.5-4.1 10.5-11.6 27.6-16.8 38-5.1 10.5-12.5 24.2-16.5 30.5-4 6.3-10.4 15.8-14.3 21-3.9 5.2-12.7 15.1-19.7 22-6.9 6.9-16.2 15.1-20.5 18.2-4.4 3.1-11.6 7.7-16 10.2-4.4 2.5-12.7 6.6-18.5 9-5.8 2.5-14.6 5.6-19.5 7.1-4.9 1.4-13.5 3.4-19 4.5-5.5 1.1-14.5 2.4-20 3.1-5.5 0.6-18.8 1.1-29.5 1.1-10.7 0-24.5-0.5-30.5-1.1-6.1-0.7-16.2-2.2-22.5-3.5-6.3-1.3-15.8-3.8-21-5.5-5.2-1.8-13.6-5.3-18.5-7.8-5-2.4-11.9-6.6-15.5-9.3-3.6-2.6-9.9-8.4-14-12.7-4.1-4.4-9.4-11.2-11.8-15.2-2.3-3.9-5.3-9.9-6.7-13.3-1.4-3.5-3.4-9.7-4.5-13.8-1-4.1-2.3-11-2.9-15.2-0.6-4.3-1.1-14.8-1.1-23.3 0-8.5 0.7-20.8 1.5-27.2 0.9-6.5 2.7-17.6 4.1-24.8 1.4-7.1 4.5-20.6 6.9-30 2.4-9.3 22-71.9 43.6-139 21.5-67.1 39.3-122.3 39.6-122.7 0.2-0.5 25.6-0.8 112.3-0.8zm312.5 0h69.2c38.1 0 69.3 0.1 69.4 0.3 0 0.1 10.3 71.3 22.8 158.2 19.9 138.3 22.9 157.6 23.9 154.5 0.6-1.9 21.3-69.9 46.1-151 24.7-81.1 45.9-150.8 49.1-162h52.5c28.9 0 52.5 0.2 52.5 0.5 0 0.3-32.2 103.1-71.5 228.5-39.3 125.4-71.5 228.2-71.5 228.5 0 0.3-31 0.5-138 0.5l-0.5-3.2c-0.2-1.8-10.8-72.8-23.5-157.8-12.7-85-23.2-154.6-23.3-154.7-0.1-0.1-21.8 70.8-96.2 315.7h-52.3c-28.7 0-52.2-0.3-52.2-0.7-0.1-0.5 32.2-103.5 71.7-229zm455.6 0h56c30.7 0 55.9 0.1 55.9 0.2 0 0.1-31.8 103.1-141.6 457.3l-55.7 0.2c-48.1 0.2-55.7 0.1-55.6-1.2 0-0.8 29.7-97.4 66-214.8 36.3-117.3 68-219.7 70.5-227.5zm155.3 0h158.8c137.8 0 158.8 0.2 158.6 1.4-0.1 0.8-6.6 21.3-28.3 89.5l-102.8 0.6-115.2 366.5h-56.2c-53.1 0-56.2-0.1-55.8-1.7 0.3-1 26-83 57.1-182.3 31.2-99.3 56.9-181.1 57.1-181.7 0.3-1-10.3-1.3-50.7-1.3-28 0-51-0.3-51-0.7 0-0.5 6.4-20.9 14.2-45.5zm503.7 0c79.7 0 145 0.3 145 0.7 0 0.4-5.9 19.9-13 43.3-7.2 23.3-13.1 42.6-13.1 42.7 0.1 0.1-40.8 0.4-181.3 0.8l-14.8 45.5c-8.1 25-14.7 45.8-14.8 46.2 0 0.4 38.4 0.8 85.5 0.8 47 0 85.4 0.3 85.4 0.7 0 0.4-6.2 20.1-27.6 86.8l-171.3 0.5-1 3.2c-0.5 1.8-7.5 23.7-15.4 48.8-7.9 25-14.6 46.5-15.6 50l187.8 0.5-10.3 33.5c-5.7 18.4-11.7 38.1-16.5 54h-149.5c-141.9 0-149.5-0.1-149.1-1.8 0.3-1 32.8-103.7 72.1-228.2 39.4-124.6 71.9-226.9 72.1-227.3 0.3-0.4 65.7-0.7 145.4-0.7zm-467.5 1147.2c1.1-0.1 10.5 0.2 21 0.8 10.4 0.5 24.6 1.7 31.5 2.5 6.8 0.9 17.2 2.5 23 3.6 5.7 1.1 15.4 3.1 21.5 4.5 6 1.4 17.5 4.3 25.5 6.5 7.9 2.2 14.8 4.3 15.2 4.7 0.4 0.4-7.1 21.6-16.8 47.2-9.6 25.5-17.7 46.6-18 46.7-0.2 0.1-3.5-1.3-7.2-3.1-3.7-1.9-11.2-5.1-16.7-7.1-5.5-2.1-14.1-4.8-19-6.2-5-1.3-14-3.2-20-4.3-6.1-1.1-18-2.5-26.5-3.1-8.9-0.7-22.4-1-31.5-0.6-8.8 0.3-20.1 1.2-25 2.1-5 0.8-13.1 2.6-18 3.9-5 1.3-12.6 3.9-17 5.6-4.4 1.8-10.7 4.6-14 6.3-3.3 1.6-10.5 6.1-16 9.8-5.5 3.7-13.8 10.3-18.5 14.6-4.6 4.3-11.4 11.4-15.1 15.9-3.6 4.4-9.3 12-12.5 16.9-3.2 5-8.2 13.8-11.1 19.6-2.9 5.7-7 15.2-9.2 20.9-2.2 5.8-5.3 15.7-7 22.1-1.7 6.3-4 16.6-5.2 22.9-1.4 7.5-2.3 17.6-2.6 28.6-0.4 13-0.1 19.3 1.1 26.9 0.9 5.6 3 14.1 4.7 19.1 1.7 4.9 4.9 12.1 7.1 16 2.4 4.1 7.6 10.4 12.7 15.5 4.7 4.6 11.3 10 14.6 11.9 3.3 2 10.2 5 15.5 6.7 5.2 1.8 13 3.7 17.2 4.3 4.3 0.6 11.3 1 15.5 1 4.3 0 12-0.6 17.3-1.4 5.2-0.8 13.1-2.4 17.5-3.6 4.4-1.1 8.3-2.4 8.7-2.8 0.4-0.3 7.1-20.5 29.3-89.1h-32.3c-25.1 0-32.2-0.3-32.2-1.3 0-0.7 5.9-20.5 26.5-86.8h86.7c47.7 0 86.8 0.3 86.8 0.5 0 0.3-17.8 57.1-39.6 126.3-21.7 69.2-39.9 126.8-40.5 128-0.8 1.9-3.3 2.8-17.7 6.2-9.2 2.2-21.9 4.8-28.2 5.9-6.4 1.1-16.5 2.7-22.5 3.6-6.1 0.8-17.6 2.2-25.5 3.1-8 0.9-27.4 1.9-43 2.2-23.4 0.4-30.9 0.2-41.5-1.2-7.2-0.9-18.2-2.8-24.5-4.3-6.4-1.4-16.4-4.3-22.3-6.4-5.9-2.1-14.7-5.8-19.5-8.2-4.8-2.4-12.8-7.1-17.7-10.4-5-3.3-13.7-10.4-19.4-15.9-5.7-5.4-13.2-13.7-16.6-18.4-3.4-4.6-8.2-12-10.6-16.5-2.5-4.4-6.1-11.8-8-16.5-2-4.6-4.9-12.7-6.4-18-1.5-5.2-3.5-14-4.5-19.5-1-5.5-2.4-16.2-3.1-24-0.7-8.7-1-19.6-0.5-29 0.3-8.2 1.3-20.1 2.1-26.5 0.8-6.3 2.4-16.4 3.5-22.5 1.2-6 3.6-17 5.5-24.5 1.8-7.4 5.7-20.2 8.5-28.5 2.8-8.2 9.1-23 13.9-33 5.1-10.3 12.6-23.7 17.8-31.5 5-7.4 12.9-18 17.5-23.5 4.7-5.5 12.2-13.6 16.9-18 4.6-4.4 11.7-10.7 15.9-14.1 4.1-3.3 12.2-9.2 18-13.1 5.7-3.9 16.1-10 23-13.6 6.8-3.6 17.4-8.5 23.5-11 6-2.5 15.9-6.1 22-8 6-2 16.8-5 24-6.7 7.1-1.7 19.7-4.1 28-5.4 8.2-1.3 21.9-2.9 30.5-3.5 8.5-0.6 19.1-1.2 23.5-1.4 4.4-0.1 8.9-0.3 10-0.4zm403.5-0.1c0.8-0.1 8.7 0.3 17.5 0.8 8.8 0.6 21.1 1.9 27.5 3 6.3 1.1 16.2 3.4 22 5.1 5.7 1.7 15.2 5.4 21 8.1 5.7 2.7 14.3 7.5 19 10.6 4.6 3.2 12.3 9.6 17 14.2 4.7 4.7 11 11.9 13.9 16 2.9 4.2 7.4 11.8 10 17 2.7 5.3 6 12.9 7.5 17 1.5 4.2 3.6 11.1 4.7 15.5 1.1 4.5 2.7 12.8 3.6 18.5 1 6.9 1.6 17.5 1.6 30.5-0.1 12.9-0.7 24.7-1.7 33-0.9 7.2-3 20.5-4.7 29.5-1.7 9.1-4.9 23.8-7.1 32.5-2.2 8.8-6.5 23-9.4 31.5-2.9 8.6-7.6 21-10.4 27.5-2.8 6.6-7.8 17.1-11.1 23.3-3.3 6.2-8.5 15.4-11.7 20.5-3.1 5.1-9.7 14.6-14.7 21.2-5 6.6-14.2 17.4-20.5 23.9-6.4 6.6-16 15.5-21.5 20-5.5 4.4-14.8 11.1-20.5 14.9-5.8 3.7-15.3 9.2-21 12.2-5.8 3-15.3 7.3-21 9.6-5.8 2.3-15.9 5.7-22.5 7.6-6.6 1.9-17.9 4.5-25 5.8-7.2 1.3-18.7 2.9-25.5 3.6-7.6 0.7-21.8 1-36 0.7-17.8-0.4-26.3-1-35-2.6-6.4-1.1-16.3-3.5-22-5.2-5.8-1.7-15.3-5.3-21-8.1-5.8-2.7-14.4-7.5-19-10.6-4.7-3.1-12.8-9.9-18.1-15.2-5.2-5.2-11.9-13.1-14.8-17.6-2.9-4.4-7.3-12-9.7-17-2.4-4.9-5.6-13-7.3-18-1.6-4.9-3.9-13.7-5-19.5-1.2-5.7-2.6-15.2-3.1-21-0.6-5.7-1-14.7-1-20 0-5.2 0.4-14.4 1-20.5 0.5-6 1.7-15.9 2.5-22 0.9-6 2.7-16.8 4.1-24 1.4-7.1 4.1-19.2 6-27 1.9-7.7 5.8-20.9 8.6-29.5 2.7-8.5 7.9-22.2 11.4-30.5 3.5-8.2 9.5-20.8 13.4-28 3.9-7.1 10.4-17.9 14.4-24 4-6 10.6-15 14.6-20 3.9-4.9 11.5-13.4 16.8-18.8 5.3-5.4 13.7-13.3 18.7-17.4 4.9-4.2 14.4-11.2 21-15.6 6.6-4.4 18.3-11 26-14.8 7.7-3.7 18.5-8.4 24-10.4 5.5-2 13.8-4.6 18.5-5.9 4.6-1.3 13-3.3 18.5-4.4 5.5-1.1 14-2.6 19-3.2 4.9-0.6 14.8-1.5 22-1.9 7.1-0.4 13.6-0.8 14.5-0.9zm-37.5 95c-4.4 1.1-11.2 3.4-15 5-3.9 1.6-9.7 4.6-13 6.6-3.3 2-9 6-12.5 8.8-3.6 2.8-10.2 8.9-14.6 13.6-4.4 4.6-10.7 11.9-13.9 16.3-3.3 4.5-8.2 11.6-10.9 16-2.8 4.5-8 14.3-11.7 22-3.8 7.8-8.5 18.5-10.5 24-2.1 5.5-5.2 14.8-7 20.5-1.8 5.8-4.4 15.7-5.8 22-1.4 6.4-3.4 16.3-4.3 22-1.3 7.8-1.8 16.3-1.7 32 0 19.9 0.2 22.3 2.6 31 1.4 5.3 4.1 12.8 6.1 16.8 2.2 4.3 6.2 9.9 9.9 13.9 4.7 4.9 8.3 7.5 14.3 10.5 4.9 2.4 11.2 4.5 16.5 5.5 5.9 1.1 11.4 1.4 18.5 1.1 5.5-0.3 13.6-1.5 18-2.6 4.4-1.2 10.9-3.3 14.5-4.7 3.5-1.5 9.4-4.4 13-6.4 3.5-2.1 9.8-6.5 14-9.7 4.1-3.3 11.2-10 15.8-14.9 4.6-4.9 10.9-12.5 14.1-17 3.1-4.4 7.9-11.8 10.7-16.5 2.8-4.6 7.1-12.3 9.4-17 2.3-4.6 6.6-14.3 9.5-21.5 2.8-7.1 6.8-18.4 8.8-25 2-6.5 4.5-16 5.7-21 1.1-4.9 3-14.4 4-21 1.1-6.5 2.3-19.2 2.6-28 0.4-11.7 0.2-18.6-0.9-26-0.9-5.5-2.8-13.5-4.2-18-1.5-4.4-4.1-10.4-5.8-13.5-1.7-3-5.8-8.2-9.2-11.5-4.1-4.1-8.5-7.3-13.5-9.7-4.2-2-11-4.4-15.3-5.2-4.2-0.9-11.4-1.5-16-1.4-4.5 0.1-9.6 0.3-11.2 0.6-1.7 0.2-6.6 1.3-11 2.4zm498.5-94.4c6.8 0.2 17.8 1 24.2 1.8 6.5 0.8 15.6 2.4 20.3 3.5 4.6 1 12.2 3.2 16.7 4.8 4.6 1.6 11.6 4.4 15.8 6.3 4.1 1.9 11.5 6.1 16.5 9.3 4.9 3.2 13 9.8 18 14.6 4.9 4.8 11.5 12.3 14.7 16.6 3.1 4.3 7.8 12.1 10.5 17.3 2.7 5.3 6.6 14.7 8.6 21 2.1 6.4 4.7 16.7 5.9 23 2 10 2.2 14.9 2.2 37.5 0 19.9-0.4 28.9-1.8 38-1 6.6-2.9 18.1-4.2 25.5-1.4 7.5-4.3 20.8-6.5 29.5-2.2 8.8-6.3 22.8-9 31-2.8 8.3-7.3 20.5-10.1 27-2.8 6.6-7.7 17.2-10.9 23.5-3.2 6.4-9.1 16.7-13 23-3.9 6.4-10.2 15.6-13.9 20.5-3.7 5-10.6 13.3-15.2 18.5-4.6 5.3-12.7 13.3-17.9 17.9-5.2 4.6-12.8 11-16.9 14.1-4.2 3.1-12.5 8.8-18.5 12.6-6.1 3.7-16.2 9.3-22.5 12.2-6.4 3-18.7 7.9-27.5 10.8-8.8 2.9-21.7 6.4-28.5 7.9-6.9 1.4-18.6 3.2-26 4-7.7 0.9-22.5 1.5-34.3 1.5-12.9 0-25.2-0.5-32.5-1.5-6.4-0.8-15.6-2.4-20.2-3.5-4.7-1.1-12.8-3.4-18-5.2-5.3-1.7-13.8-5.3-19-8-5.3-2.7-12.5-7-16-9.5-3.6-2.5-10.1-8-14.4-12.2-4.4-4.1-10.5-10.9-13.6-15.1-3-4.1-7.4-10.8-9.7-15-2.3-4.1-5.7-11.5-7.7-16.4-1.9-5-4.7-13.8-6.1-19.6-1.4-5.7-3.3-15.9-4.2-22.4-1.2-9.2-1.4-17-1-33.1 0.3-13.6 1.3-25.8 2.6-35 1.2-7.7 3.5-20.7 5.1-28.9 1.7-8.3 4.4-20.2 6.1-26.6 1.6-6.3 4.1-15 5.5-19.4 1.3-4.5 4.5-13.7 7.1-20.6 2.5-6.8 7-17.9 10-24.4 3-6.6 7.9-16.6 11-22.1 3-5.5 8.7-14.9 12.7-20.9 4-6.1 11-15.8 15.6-21.6 4.6-5.7 13.1-15.2 18.9-20.9 5.8-5.8 14.2-13.4 18.6-17 4.4-3.5 13.4-9.9 20-14.3 6.6-4.3 17.8-10.7 25-14.2 7.1-3.5 20.4-8.9 29.5-11.9 9-3 22.1-6.6 29-8 6.8-1.4 16.5-3.1 21.5-3.7 4.9-0.7 14.8-1.5 22-1.9 7.1-0.4 18.6-0.6 25.5-0.3zm-47.5 93.9c-3.9 0.9-10.4 3-14.5 4.7-4.2 1.7-11.4 5.4-16 8.3-4.7 2.9-11.8 8-15.8 11.3-4 3.3-10.7 10.1-15 15.1-4.2 5-11.1 14.1-15.3 20.3-4.1 6.1-10.2 16.6-13.6 23.1-3.4 6.6-8.7 18.6-11.8 26.5-3.2 8-7.7 21.3-10 29.5-2.4 8.3-5.5 21.6-6.9 29.5-1.4 8-3.1 20.7-3.6 28.3-0.7 9.6-0.7 17.3 0.1 25.5 0.6 6.5 1.9 15.1 3 19.2 1 4.2 3.4 10.7 5.3 14.5 1.8 3.9 5.4 9.5 7.8 12.5 2.5 3.1 6.9 7.2 9.9 9.3 2.9 2 7.8 4.7 10.9 5.8 3 1.2 8.8 2.8 13 3.7 5.3 1.1 10.5 1.4 18 1 5.7-0.3 14.1-1.5 18.5-2.6 4.4-1.1 10.9-3.3 14.5-4.8 3.5-1.5 9.8-4.8 14-7.3 4.1-2.5 10.6-7.1 14.5-10.2 3.8-3 9.8-8.6 13.3-12.4 3.5-3.8 8.9-10.3 12-14.5 3.2-4.1 8.4-11.7 11.6-17 3.3-5.2 9-15.7 12.7-23.5 3.7-7.7 8.2-17.8 9.9-22.5 1.7-4.6 4.4-12.5 6-17.5 1.6-4.9 4-13.5 5.4-19 1.3-5.5 3.3-14.9 4.4-21 1.1-6 2.5-17.2 3.1-25 0.9-10.4 0.9-17.1 0-26.5-0.6-6.8-2-15.8-3-20-1.1-4.1-3.7-11-5.9-15.5-2.4-4.8-6-10.1-9.2-13.5-2.9-3-7.6-7-10.3-8.8-2.8-1.8-8.6-4.4-13-5.8-6.3-2-10.5-2.6-19.5-2.9-6.4-0.1-12.9-0.1-14.5 0.2-1.7 0.2-6.2 1.1-10 2zm311.7-86.8l84.6 0.4c69.2 0.4 87 0.8 97.7 2.1 7.1 0.9 17.5 2.5 23 3.5 5.5 1.1 14 3.1 19 4.5 4.9 1.4 12.6 3.8 17 5.5 4.4 1.6 11.7 4.8 16.2 7 4.6 2.3 12 6.6 16.5 9.6 4.6 2.9 12.5 9.3 17.7 14.2 5.1 4.9 12 12.6 15.2 17.1 3.2 4.5 7.7 12 10 16.5 2.3 4.5 5.4 11.8 7 16.2 1.5 4.5 3.7 12.1 4.8 17 1 5 2.5 14.2 3.1 20.5 0.8 7.4 1 17.7 0.7 28.5-0.4 9.4-1.5 23.1-2.6 30.5-1.2 7.5-3 18.5-4.1 24.5-1.2 6.1-3.9 17.8-6 26-2.2 8.3-5.7 20.2-7.8 26.5-2.2 6.4-5.3 14.9-7 19-1.7 4.2-5.1 12-7.7 17.5-2.5 5.5-6.7 13.6-9.3 18-2.5 4.5-7.3 12.1-10.6 17-3.2 5-8.9 12.9-12.5 17.5-3.7 4.7-10.9 13-16.1 18.4-5.3 5.5-13.8 13.5-19 17.9-5.3 4.4-14.7 11.4-21 15.7-6.4 4.2-15.4 9.7-20 12.3-4.7 2.5-14.4 7.2-21.5 10.2-7.2 3.1-18.7 7.4-25.5 9.6-6.9 2.2-18.4 5.3-25.5 6.9-7.2 1.6-18 3.6-24 4.5-6.1 0.9-15.1 2.1-20 2.7-5.8 0.7-45.8 1.2-112.3 1.5-82.1 0.3-103.2 0.1-103.2-0.9 0-0.7 31.8-102.5 70.6-226.3 38.8-123.7 71.1-226.4 71.6-228.3zm79.5 103.3c-2 6.3-21.2 68-42.7 137.1-21.5 69.2-39 126-39 126.3 0 0.3 13.1 0.5 29.2 0.5 16.1 0 33.1-0.5 37.8-1.1 4.6-0.5 11.6-1.7 15.5-2.5 3.8-0.7 11.5-2.8 17-4.6 5.5-1.7 14.9-5.7 21-8.8 6-3.1 15-8.6 19.9-12.1 4.9-3.5 12.8-10.2 17.5-14.9 4.7-4.7 11.3-11.9 14.6-16 3.2-4.1 8.6-11.8 11.9-17 3.3-5.2 8.3-14.5 11.2-20.5 2.9-6.1 6.8-15.5 8.8-21 2-5.5 5-15 6.6-21 1.6-6.1 3.9-16.4 5.1-23 1.9-9.8 2.3-15.6 2.3-31 0-16.9-0.2-19.9-2.3-27-1.2-4.4-3.6-10.7-5.1-14-1.6-3.3-4.6-8.3-6.8-11-2.2-2.8-6.8-7.2-10.3-9.9-3.6-2.7-9-6.1-12.2-7.7-3.1-1.6-9.7-4.1-14.5-5.5-4.8-1.4-12.8-3.2-17.7-4.1-6.1-1-18-1.7-36.6-2l-27.6-0.5zm-1061.7-695.7c15.9 0.2 26.9 0.9 34 2 5.7 0.9 14.7 2.8 20 4.2 5.2 1.3 14.2 4.3 20 6.7 5.7 2.3 14.2 6.4 18.8 9.2 4.6 2.7 11.7 7.6 15.6 10.9 4 3.3 9.9 8.9 13.2 12.5 3.3 3.6 8.4 10.1 11.3 14.5 3 4.4 7.4 12.1 9.7 17 2.3 5 5.6 13.1 7.2 18 1.6 5 3.9 13.9 5.1 19.8 1.1 5.9 2.6 17.4 3.2 25.5 0.8 10.9 0.8 18.8 0 30.7-0.6 8.8-2.1 21.9-3.1 29-1.1 7.2-3 17.7-4.1 23.5-1.1 5.8-3.8 17.5-6 26-2.1 8.5-5.7 21.1-8 28-2.3 6.9-6.4 18.1-9.2 25-2.7 6.9-8.4 19.3-12.6 27.5-4.2 8.2-11.5 20.8-16.2 28-4.7 7.2-12.2 17.5-16.6 23-4.4 5.5-12 14.1-16.9 19-4.9 5-13.2 12.6-18.4 17-5.3 4.3-14.9 11.5-21.5 15.8-6.6 4.3-17.9 10.7-25 14.2-7.2 3.5-17.3 7.9-22.5 9.8-5.3 2-13.6 4.7-18.5 6.1-5 1.4-13.5 3.4-19 4.5-5.5 1.1-15.3 2.7-21.8 3.6-6.4 0.8-18.8 1.8-27.5 2.2-9.3 0.3-21.5 0.1-29.7-0.6-7.7-0.6-17.9-1.8-22.5-2.6-4.7-0.8-12.8-2.6-18-4-5.3-1.4-12.9-3.9-17-5.6-4.2-1.6-10.9-4.8-15-7-4.2-2.2-11.1-6.6-15.4-9.7-4.3-3.1-11.6-9.6-16.2-14.4-4.7-4.8-10.9-12.5-13.8-17-3-4.6-7.1-11.7-9.1-15.8-2.1-4.1-5.3-12-7.1-17.5-1.8-5.5-4.2-14.5-5.3-20-1.1-5.5-2.6-15.6-3.2-22.5-0.7-7.4-1-18.4-0.6-27 0.3-8 1.3-20.1 2.2-27 0.9-6.9 2.7-18.6 4.1-26 1.3-7.4 4.2-20.7 6.4-29.5 2.1-8.8 5.8-21.8 8-29 2.3-7.1 6-17.5 8.2-23 2.2-5.5 6.2-14.9 9-21 2.8-6 7.3-15 10-20 2.7-4.9 8.7-14.6 13.2-21.5 4.6-6.9 11.4-16.3 15.1-21 3.8-4.7 12.3-13.9 18.9-20.5 6.6-6.7 15.9-15.1 20.6-18.7 4.6-3.6 11.8-8.8 16-11.5 4.1-2.7 11.5-7.3 16.5-10.1 4.9-2.8 14.1-7.3 20.5-10 6.3-2.7 16.6-6.6 23-8.6 6.3-1.9 16.4-4.7 22.5-6 6-1.4 16.4-3.2 23-4 6.6-0.8 14-1.7 16.5-1.9 2.4-0.3 15-0.3 28-0.2zm-46.5 94.5c-4.4 1.2-11.4 3.7-15.5 5.7-4.2 1.9-11.1 5.8-15.5 8.8-4.4 2.9-11.4 8.4-15.4 12.2-4.1 3.7-10.2 10.2-13.7 14.3-3.4 4.1-9.7 12.7-13.9 19-4.3 6.3-11 18.3-15.1 26.5-4 8.3-9.3 20.8-11.8 27.8-2.6 7-6 17.3-7.6 23-1.6 5.6-4.1 15.4-5.4 21.7-1.3 6.3-3 15.6-3.8 20.5-0.8 5.2-1.3 17.3-1.3 28.5 0 14.5 0.4 21.4 1.6 27 1 4.1 2.9 10.7 4.4 14.5 1.4 3.9 4.5 9.9 6.9 13.5 2.4 3.6 6.7 8.5 9.7 10.9 2.9 2.4 8.1 5.7 11.4 7.2 3.3 1.6 9.1 3.6 13 4.4 3.8 0.8 11.6 1.5 17.2 1.5 6.8 0 13.4-0.7 19.5-2 5.1-1.2 12.6-3.5 16.8-5.2 4.1-1.7 10.4-4.9 14-7.1 3.5-2.2 8.3-5.3 10.5-7 2.2-1.7 7.2-6 11.1-9.6 3.8-3.6 9.7-9.7 13-13.6 3.2-3.8 9.2-11.9 13.2-18 4-6 10.4-17.1 14.1-24.5 3.8-7.4 8.9-18.7 11.4-25 2.4-6.3 6-16.7 8-23 1.9-6.3 4.6-16.7 6-23 1.4-6.3 3.3-16 4.1-21.5 0.9-5.5 1.9-16.5 2.2-24.5 0.4-8.6 0.2-18.1-0.5-23.5-0.6-4.9-2.1-12.6-3.2-17-1.2-4.4-3.5-10.7-5.1-14-1.6-3.3-4.7-8.3-6.9-11.2-2.2-2.9-5.8-6.7-8.2-8.4-2.3-1.7-6.8-4.4-10-6-3.1-1.6-8.5-3.5-12-4.4-3.4-0.8-10.3-1.6-15.2-1.9-5-0.2-11.5-0.1-14.5 0.3-3.1 0.5-9.1 1.8-13.5 3.1zm-330.5-87c75.9 0 138 0.4 138 0.8-0.1 0.4-5.8 19.8-25.6 85.7l-167.7 1-32.2 98.5h80.2c70.7 0 80.3 0.2 80.3 1.5 0 0.8-5.5 19.2-12.1 40.8-6.6 21.6-12.4 40.7-13.9 45.7l-159.5 0.1-57.1 183.4-111.9 0.6 0.6-2.8c0.4-1.5 32.5-104.3 71.4-228.3 38.9-124 70.9-225.8 71.1-226.2 0.3-0.4 62.5-0.8 138.4-0.8zm650 0h82.3c45.2 0 88.2 0.5 95.7 1 7.4 0.6 18.4 1.7 24.5 2.6 6 0.9 15 2.6 20 3.9 4.9 1.3 12.6 3.7 17 5.4 4.4 1.7 10.9 4.8 14.5 6.8 3.6 2.1 10.5 7.8 15.6 12.8 7.4 7.4 9.8 10.6 13.2 17.5 2.3 4.7 5.2 12.1 6.4 16.5 2 7.2 2.2 10.4 2.2 30.5 0 21.3-0.2 23.2-2.8 34.5-1.6 6.6-4 14.9-5.3 18.5-1.4 3.6-4.5 10.3-6.9 15-2.4 4.7-6.6 11.4-9.3 15-2.7 3.6-8.6 10-13 14.3-4.5 4.2-11.6 10-15.9 12.8-4.2 2.8-11.8 7-16.7 9.4-5 2.4-13.8 5.9-19.5 7.8-5.8 1.9-15.7 4.7-22 6.1-6.4 1.4-14.2 2.9-23.5 3.9l5 1.6c2.7 0.9 6.7 2.8 8.9 4.1 2.2 1.4 5.6 4.8 7.6 7.5 2.1 2.8 4.7 6.9 5.9 9.3 1.1 2.3 3.2 8.2 4.6 13 1.4 4.8 3.2 12.5 4 17.2 0.7 4.7 2.1 16.2 2.9 25.5 0.9 9.4 4 45.7 7.1 80.8 3 35 5.5 63.9 5.5 64.2 0 0.3-25 0.5-111 0.5v-2.7c0-1.5-1.8-32.7-4-69.3-2.2-36.6-4.5-69.9-5-74-0.6-4.1-1.6-9.5-2.2-12-0.6-2.5-1.9-6.1-2.8-8-1-1.9-3.6-5.1-5.8-7-2.2-1.9-5.7-4-7.8-4.7-2.2-0.7-8.2-1.8-13.4-2.3-5.3-0.6-14.7-0.9-32.3-0.5l-55.2 180.5h-55.8c-44.1 0-55.7-0.2-55.4-1.2 0.3-0.7 31.3-100.3 69.1-221.3 37.8-121 69.9-223.5 71.2-227.7zm80 93.2c-1.1 3.5-7.9 25.6-15.1 49.3-7.2 23.6-13.3 44-13.5 45.2l-0.5 2.3c29.9 0 44.4-0.5 51.5-1.1 7.2-0.5 16.9-1.9 21.5-2.9 4.7-1 11.9-3.1 16-4.7 4.2-1.6 10-4.5 13-6.5 3.1-2 7.9-6.2 10.8-9.2 2.9-3.2 6.8-8.8 8.7-12.9 1.9-4 4.2-10.8 5.1-15.2q1.6-8 1-15.5c-0.3-4.2-1.4-9.7-2.3-12.4-1-2.7-3.6-7-5.9-9.5-2.2-2.6-6.5-5.8-9.7-7.4-3.1-1.5-9.6-3.4-14.4-4.2-6.4-1.1-16.3-1.5-36.5-1.5h-27.6z"/></svg>