<svg version="1.2" xmlns="http://www.w3.org/2000/svg" viewBox="0 0 2629 1621" width="2632" height="1623"><style>.a{fill:#00a2e0}.b{fill:#0067c8}.c{fill:#17458f}</style><path fill-rule="evenodd" class="a" d="m1176 1147.5c12.4 0.3 29 1.1 37 2 8 0.8 18.1 2.1 22.5 2.9 4.4 0.8 13.6 2.6 20.5 4 6.9 1.5 19.5 4.5 28 6.8 8.5 2.3 17 4.7 22 6.8l-3.6 10.3c-2 5.6-7.6 20.8-12.4 33.7-4.8 12.9-11.1 29.5-13.9 36.8-2.8 7.2-5.4 13.2-5.8 13.2-0.5 0-4.8-1.9-9.8-4.2-5-2.2-14.8-6-22-8.3-7.2-2.4-17.3-5.2-22.5-6.3-5.2-1.2-15.9-2.8-23.8-3.6-8-0.9-22.8-1.6-33.9-1.6-10.9 0-23.4 0.5-27.8 1-4.4 0.6-13.2 2.3-19.5 3.9-6.3 1.5-16.7 4.9-23 7.4-6.3 2.6-15 6.8-19.3 9.5-4.3 2.6-11.5 7.5-16 10.8-4.5 3.4-12.7 10.9-18.2 16.6-5.5 5.7-13 14.6-16.7 19.8-3.8 5.2-10.4 16.7-14.8 25.5-4.4 8.8-9.8 21.4-11.9 28-2.2 6.6-5.4 17.8-7 25-1.6 7.2-3.5 17.7-4.2 23.5-0.7 6.3-0.9 17.7-0.6 28.5 0.4 15.5 0.8 19.3 3.1 27.5 1.5 5.2 4.8 13.8 7.3 19 4 8.3 5.9 10.8 14.5 19.3 8.3 8.2 11.2 10.4 19.1 14.2 5 2.5 13.7 5.7 19.2 7.1 7.9 2 12.5 2.6 22 2.6 6.7 0 16.4-0.7 22-1.6 5.5-0.9 13-2.6 23.5-5.6l14.1-43.3c7.8-23.7 14.3-43.8 14.5-44.5 0.3-0.9-6.5-1.2-31.6-1.2-17.6 0-32.2-0.3-32.4-0.8-0.2-0.4 4-14.9 9.4-32.2 5.3-17.3 11.4-36.8 17-55h87c57.3 0 87 0.3 87 1 0 0.5-7.5 24.7-16.6 53.8-9.1 29-19.4 61.9-22.9 73.2-3.5 11.3-10.9 34.9-16.5 52.5-5.6 17.6-13.3 41.8-17.1 53.8-4.6 14.6-7.5 22-8.6 22.6-1 0.5-6.3 2.1-11.8 3.4-5.5 1.4-16.7 3.9-25 5.6-8.2 1.7-23.5 4.2-34 5.6-10.5 1.3-28.2 3-39.5 3.6-11.3 0.6-31.3 0.9-44.5 0.6-19.1-0.3-26.2-0.9-35-2.6-6-1.2-15.3-3.4-20.5-4.8-5.2-1.5-14.9-4.8-21.5-7.5-6.6-2.6-15.1-6.6-19-8.8-3.9-2.3-9.9-6.3-13.5-8.9-3.6-2.7-9.2-7.3-12.5-10.2-3.3-2.9-9.1-8.7-12.9-12.8-3.8-4.2-9.3-11.2-12.2-15.6-2.9-4.4-7.5-12.7-10.3-18.5-2.7-5.8-6.4-14.8-8.1-20-1.7-5.2-4.2-14.9-5.5-21.5-1.3-6.6-2.9-17.2-3.6-23.5-0.8-7.4-1-18.8-0.6-32 0.3-12.9 1.4-25.7 2.7-34.5 1.1-7.7 3.7-21.2 5.6-30 2-8.8 6.2-23.9 9.4-33.5 3.1-9.6 8.4-23.3 11.7-30.5 3.3-7.2 8.1-16.8 10.8-21.5 2.6-4.7 6.6-11.4 8.8-15 2.3-3.6 7.7-11.2 12.1-17 4.3-5.8 10.9-13.8 14.5-17.8 3.6-4.1 11.6-11.8 17.6-17.1 6-5.3 15.3-12.6 20.5-16.2 5.2-3.7 14.5-9.5 20.5-13 6-3.5 16.6-8.9 23.5-12 6.9-3.1 17.2-7.3 23-9.2 5.8-2 17.5-5.4 26-7.6 8.5-2.2 20.9-4.9 27.5-6 6.6-1 14.3-2.2 17-2.6 2.8-0.4 12.7-1.3 22-2.1 10.3-0.8 25.9-1.1 39.5-0.9zm402 0.1c9.6 0.2 21.8 0.9 27 1.4 5.2 0.6 15.1 2.3 22 3.9 6.9 1.6 16.8 4.5 22 6.6 5.2 2 14 6.2 19.5 9.2 5.5 3.1 12.9 8 16.5 10.8 3.6 2.9 9.8 8.7 13.8 12.9 3.9 4.2 9.8 11.5 12.9 16.4 3.1 4.8 7.5 12.5 9.7 17.2 2.1 4.7 5.2 12.3 6.8 17 1.5 4.7 3.9 14.1 5.3 21 1.5 8 2.6 18.3 3.1 28.5 0.4 9.5 0.2 22.1-0.5 31-0.6 8.3-2.5 22.9-4.1 32.5-1.6 9.6-4.3 23.6-6 31-1.7 7.4-4.6 18.7-6.5 25-1.9 6.3-4.8 15.3-6.3 20-1.6 4.7-4.6 12.8-6.7 18-2 5.2-7 16.3-11.1 24.5-4 8.3-10.4 19.8-14.1 25.7-3.8 6-10.2 15.4-14.3 21-4.1 5.6-13.6 16.5-21 24.1-7.4 7.7-16.9 16.7-21 20.1-4.1 3.4-10.7 8.5-14.5 11.2-3.8 2.8-11.7 7.8-17.5 11.2-5.8 3.4-15.9 8.6-22.5 11.5-6.6 3-17 7-23 9-6 1.9-13.9 4.3-17.5 5.2-3.6 1-12.8 2.8-20.5 4.2-11.9 2.1-18.2 2.5-42.5 3-17.6 0.3-32.5 0.1-39-0.6-5.8-0.6-16.1-2.5-23-4.2-6.9-1.6-17.3-5-23.3-7.5-5.9-2.4-14.4-6.5-18.9-9-4.6-2.6-11-6.8-14.3-9.4-3.3-2.6-9.7-8.6-14.3-13.4-4.5-4.7-10.6-12.3-13.6-16.8-2.9-4.6-6.4-10.3-7.6-12.8-1.3-2.5-3.8-8.5-5.7-13.5-1.9-5-4.6-13.5-5.9-19-1.3-5.5-3.1-15-3.9-21-0.9-6.1-1.6-18.2-1.6-27 0-8.8 0.7-22.3 1.6-30 0.9-7.7 2.5-19.2 3.6-25.5 1.1-6.3 3.5-18.5 5.4-27 1.9-8.5 5.5-22.2 8-30.5 2.5-8.2 6.4-20 8.7-26 2.2-6 6.7-16.6 9.8-23.5 3.1-6.9 8.2-17.1 11.3-22.7 3.1-5.7 8.7-14.9 12.4-20.5 3.7-5.7 10.2-14.6 14.4-19.8 4.2-5.2 13-14.9 19.5-21.4 6.5-6.6 15.3-14.7 19.4-18 4.1-3.2 11.5-8.6 16.5-11.9 5-3.2 13.3-8.3 18.5-11.2 5.2-3 14.7-7.6 21-10.3 6.3-2.8 15.8-6.4 21-8 5.2-1.7 15.3-4.4 22.5-6.1 7.2-1.6 18.6-3.6 25.5-4.5 6.9-0.9 15.4-1.8 19-2 3.6-0.2 14.4-0.2 24 0zm-64.5 102.9c-6 3-13.9 7.6-17.5 10.3-3.6 2.8-11.2 9.9-17 15.8-5.8 6-13.5 15.2-17.1 20.4-3.7 5.2-8.9 13.5-11.7 18.5-2.8 5-7.7 14.8-11 22-3.3 7.2-8 18.8-10.5 26-2.5 7.2-6.1 19.5-8.1 27.5-1.9 8-4.3 18.8-5.3 24-1.3 7.4-1.7 15-1.8 35 0 23.9 0.1 26 2.3 33 1.3 4.1 3.9 10.8 5.8 14.7 2.5 5.3 5.4 9.3 10.7 14.6 4.5 4.6 9.2 8.3 12.7 9.9 3 1.4 8.9 3.6 13 4.8 6.7 2.1 8.9 2.2 21 1.8 9.1-0.4 16.1-1.3 21.5-2.7 4.4-1.2 11.6-3.8 16-5.9 4.4-2.1 11.4-6.1 15.5-8.9 4.1-2.7 11.3-8.6 15.9-12.9 4.6-4.3 11.2-11.3 14.6-15.4 3.4-4.1 8.4-10.9 11.2-15 2.7-4.1 7.7-12.5 11.1-18.5 3.4-6 8.3-16.2 11-22.5 2.7-6.3 6.8-16.9 9-23.5 2.3-6.6 5.4-17.2 7.1-23.5 1.6-6.3 3.9-17.3 5.2-24.5 2-11.1 2.3-16.4 2.3-36 0-21.6-0.1-23.6-2.5-32.5-1.4-5.2-4.4-12.9-6.5-17-2.3-4.5-6.3-10-9.9-13.6-4.1-4.1-8.4-7.2-13.5-9.7-4.1-2-10.2-4.4-13.5-5.2-3.8-1-10.4-1.5-18-1.5-9.4 0.1-14 0.6-21.5 2.6-5.2 1.3-14.5 4.9-20.5 7.9zm513.5-102.9c10.7 0.2 23.8 0.8 29 1.4 5.2 0.6 14.9 2.4 21.5 4 6.6 1.5 16.5 4.6 22 6.7 5.5 2.1 14.3 6.4 19.5 9.5 5.2 3 13.3 8.7 18 12.6 4.7 3.9 11 9.9 14 13.4 3 3.4 7.5 9.2 9.9 12.8 2.4 3.6 6.1 10.1 8.3 14.5 2.2 4.4 5.4 11.6 7 16 1.6 4.4 4.3 13.6 6 20.5 2.7 11.5 3 14.3 3.5 36.5 0.3 14.8 0.1 28.6-0.6 36-0.6 6.6-2.3 18.5-3.7 26.5-1.4 8-4.1 21.3-6 29.5-1.9 8.3-5.2 21.1-7.5 28.5-2.2 7.4-6.3 19.6-9.1 27-2.8 7.4-7.9 19.3-11.3 26.5-3.4 7.2-9.1 18-12.6 24-3.5 6-9.6 15.5-13.4 21-3.8 5.5-10.2 13.8-14.1 18.5-4 4.7-11.9 13.1-17.6 18.7-5.6 5.6-12.3 11.8-14.8 13.9-2.5 2-8.8 6.7-14 10.4-5.2 3.7-14.2 9.5-20 12.8-5.8 3.3-13.7 7.5-17.5 9.2-3.8 1.7-12.5 5.1-19.2 7.6-6.8 2.4-18.3 5.9-25.5 7.8-7.3 1.9-18.5 4.2-24.8 5.2-9.3 1.5-17.7 1.8-44 1.9-27.4 0-34.1-0.3-43-1.9-5.8-1-16.1-3.6-23-5.6-6.9-2.1-15.7-5.3-19.5-7-3.8-1.7-10.6-5.3-15-8-4.4-2.7-11.7-8.2-16.2-12.2-4.5-4-10.6-10-13.4-13.3-2.9-3.3-7-8.7-9.2-12-2.3-3.3-6-9.8-8.3-14.5-2.3-4.7-5.3-11.7-6.7-15.5-1.3-3.8-3.4-10.8-4.6-15.5-1.1-4.7-2.7-13.1-3.6-18.7-0.9-6.4-1.5-17.5-1.5-29 0-10.4 0.4-23.5 1-29.3 0.6-5.8 2.2-17.2 3.5-25.5 1.4-8.2 4.1-22 6-30.5 2-8.5 5.1-20.8 7-27.2 1.9-6.5 5.8-18 8.6-25.5 2.8-7.6 8.1-20.3 11.8-28.3 3.7-8 10.2-20.2 14.4-27.2 4.2-7.1 10.7-17 14.4-22 3.6-5.1 9.4-12.7 12.8-16.8 3.5-4.1 11.6-12.7 18.1-19 6.6-6.3 14.6-13.6 17.9-16.1 3.3-2.5 9-6.7 12.8-9.2 3.7-2.6 10.9-7.1 16-10 5-2.9 11.5-6.4 14.2-7.6 2.8-1.3 10.4-4.5 17-7.1 6.6-2.7 16.7-6.2 22.5-7.8 5.8-1.7 16.1-4.2 23-5.6 6.9-1.4 16.8-3 22-3.5 5.2-0.6 11.5-1.3 14-1.5 2.5-0.2 13.3-0.2 24 0zm-62 101.5c-3.6 1.7-10.5 5.8-15.5 9.2-4.9 3.4-12.5 9.6-16.9 13.7-4.3 4.1-12 13-17 19.6-5 6.7-11.9 17-15.3 23-3.4 6-8.4 15.9-11.1 21.9-2.7 6-7.1 16.7-9.6 23.8-2.5 7-6.2 18.7-8.1 26-1.9 7.2-4.7 20-6.1 28.2-2.2 12.4-2.7 18.3-2.8 34-0.1 12.3 0.4 21.7 1.3 26.5 0.7 4.1 2.7 11.1 4.3 15.5 1.6 4.4 4.8 10.9 7.2 14.5 2.4 3.6 6.5 8.3 9.2 10.6 2.7 2.2 6.7 5 8.9 6.3 2.2 1.3 7.8 3.4 12.5 4.8 6.5 1.9 10.9 2.4 19 2.5 5.8 0 13.2-0.5 16.5-1.1 3.3-0.6 10-2.4 15-4.1 5-1.6 12.6-5.1 17-7.6 4.4-2.6 10.5-6.5 13.5-8.7 3-2.3 8.4-6.8 11.9-10.1 3.5-3.4 8.9-9.3 12-13.1 3.2-3.8 8.3-10.6 11.3-15 3.1-4.4 8.2-12.7 11.4-18.5 3.1-5.8 8-15.5 10.7-21.5 2.7-6 6.6-15.7 8.6-21.5 2.1-5.8 5.4-16.6 7.4-24 2-7.4 4.3-17.1 5.1-21.5 0.9-4.4 2.3-13.6 3.1-20.5 0.8-6.9 1.5-17.2 1.5-23 0-5.8-0.7-15.2-1.5-21-0.8-5.8-2.2-12.7-3.1-15.5-0.9-2.7-3.4-8.4-5.5-12.5-2.1-4.3-6.1-9.8-9.1-12.9-2.9-2.9-7.5-6.9-10.3-8.7-2.7-1.8-7.9-4.3-11.5-5.5-5.4-1.8-9.2-2.3-22-2.6-14.8-0.3-15.9-0.2-25.5 2.7-5.5 1.7-12.9 4.4-16.5 6.1zm330.9-94.9l71.8 0.4c39.5 0.3 81.2 0.9 92.8 1.4 15.4 0.6 24.8 1.6 35 3.5 7.7 1.4 18.1 3.7 23 5 4.9 1.3 11.9 3.4 15.5 4.5 3.6 1.2 11.2 4.4 17 7.1 5.8 2.8 14.3 7.6 19 10.7 5.3 3.4 13.3 10.4 21 18.2 9.3 9.3 13.8 14.7 17.5 21 2.7 4.7 6.6 12.3 8.6 17 2 4.7 4.8 12.8 6.2 18 1.5 5.2 3.3 14.2 4.1 20 0.9 6.1 1.6 17.5 1.6 27 0 9.1-0.4 21.2-1 27-0.6 5.8-2.2 17.5-3.6 26-1.4 8.5-4.6 23.4-7 33-2.4 9.6-6 22.5-8 28.5-2 6-5.2 15-7.1 20-2 5-6.4 14.8-9.9 22-3.4 7.2-9.5 18.2-13.5 24.5-3.9 6.3-10.2 15.5-13.9 20.5-3.7 5-10.5 13.3-15.2 18.5-4.7 5.2-13 13.3-18.3 18-5.4 4.7-13.2 11-17.4 14.1-4.2 3.1-11.7 8.2-16.6 11.3-4.9 3.2-14.2 8.3-20.5 11.3-6.3 3.1-16.4 7.5-22.5 9.8-6.1 2.3-14.8 5.4-19.5 6.8-4.7 1.5-14.3 4-21.5 5.7-7.2 1.8-20.4 4.3-46 8.3l-106.7 0.3c-101 0.4-106.8 0.3-107.4-1.3-0.4-1 3.9-16.4 10.1-35.8 5.9-18.7 20.4-64.8 32.2-102.5 11.8-37.7 23.3-74.3 25.5-81.5 2.2-7.2 13.8-44.3 25.8-82.5 12-38.2 25.5-81.2 30-95.5 4.5-14.3 10.6-33.7 13.5-43.2zm83.2 95.1c-0.5 1.3-10.6 33.3-22.4 71.3-11.8 37.9-30.3 97.3-41 132-10.8 34.6-19.8 64.1-20.2 65.5-0.6 2.5-0.6 2.5 8.7 3.3 5.1 0.5 19.4 0.6 31.8 0.2 12.4-0.4 26.6-1.3 31.5-2.1 5-0.7 14-2.8 20-4.5 6.1-1.6 16.2-5.5 22.5-8.6 6.3-3 15.1-7.9 19.5-10.8 4.4-2.9 11.6-8.4 16-12.3 4.4-3.9 10.5-9.9 13.6-13.4 3.1-3.5 8.5-10.4 12.1-15.3 3.6-5 9.1-13.5 12.1-19 3-5.5 7.5-14.8 10-20.5 2.4-5.8 6.1-15.7 8-22 1.9-6.4 4.7-16.5 6.1-22.5 1.4-6.1 3.1-15.5 3.7-21 0.7-5.8 0.9-17.1 0.7-26.5-0.4-13.4-0.9-17.8-2.8-23.5-1.2-3.9-3.8-10.2-5.8-14-2-3.9-5.9-9.3-8.7-12.1-2.7-2.8-8.1-7.2-12-9.7-3.8-2.5-10.1-5.7-14-7.2-3.8-1.4-10.4-3.5-14.5-4.5-4.1-1.1-12.2-2.4-18-2.9-5.8-0.6-20.7-1.3-33.3-1.6l-22.7-0.5z"/><path fill-rule="evenodd" class="b" d="m1313.5 562.5c25.7 0.3 30.4 0.7 41.5 2.8 6.9 1.4 17.7 4.3 24 6.5 6.3 2.1 15.5 6 20.5 8.5 5 2.4 12.6 7 17 10.2 4.4 3.1 10.4 8 13.3 10.8 3 2.9 8.2 8.8 11.7 13.2 3.4 4.4 8.3 11.6 10.8 16 2.6 4.4 6.4 12.5 8.6 18 2.2 5.5 5.2 14.7 6.5 20.5 1.4 5.8 3.3 16.4 4.1 23.5 0.8 7.1 1.5 18.5 1.5 25.3 0 6.7-0.7 18.8-1.5 26.9-0.9 8.2-2.5 20.2-3.6 26.8-1.1 6.6-3.3 18.1-5 25.5-1.6 7.4-4.8 20-7 28-2.3 8-6.4 20.6-9.1 28-2.8 7.4-7.6 19.1-10.7 26-3.1 6.9-8.4 17.2-11.6 23-3.3 5.8-9.3 15.7-13.5 22-4.2 6.3-10.5 15.1-14 19.5-3.5 4.4-12 13.7-18.9 20.6-6.9 6.9-15.8 15-19.6 18.1-3.8 3-12.2 8.9-18.5 13.1-6.3 4.1-16.9 10.2-23.5 13.5-6.6 3.3-15.4 7.4-19.5 9-4.1 1.6-11.3 4.2-16 5.6-4.7 1.5-13.2 3.8-19 5.2-5.8 1.4-16.3 3.4-23.5 4.5-7.9 1.2-21 2.2-33.5 2.6-12.7 0.4-25.7 0.1-34-0.6-7.4-0.7-18-2.1-23.5-3.2-5.5-1.2-14.3-3.5-19.5-5.1-5.2-1.7-14-5.2-19.5-7.8-5.5-2.6-13.5-7.2-17.7-10.1-4.3-3-12.1-9.7-17.4-14.9-5.4-5.3-12.2-13.4-15.6-18.5-3.3-5-7.6-12.1-9.5-16-2-3.9-5.1-11.5-6.9-17-1.8-5.5-4.2-14.3-5.3-19.5-1.1-5.2-2.5-14.2-3.2-20-0.7-6.7-1-17.7-0.6-30.5 0.4-12.3 1.4-25.4 2.7-34 1.1-7.7 3.2-19.6 4.6-26.5 1.4-6.9 4.1-18.8 6-26.5 1.9-7.7 6.1-21.9 9.4-31.5 3.2-9.6 8.7-24 12.3-32 3.5-8 8.1-17.6 10.2-21.5 2.1-3.9 6.7-11.7 10.3-17.5 3.7-5.8 8.9-13.6 11.6-17.5 2.7-3.9 7.8-10.4 11.2-14.5 3.4-4.1 12.4-13.6 20-21 7.7-7.4 18.4-16.7 23.9-20.6 5.5-3.9 13.2-9.1 17-11.4 3.8-2.4 12.2-6.9 18.5-10.1 6.3-3.1 15.8-7.3 21-9.3 5.2-2 15.1-5.2 22-7.1 6.9-1.9 16.5-4.2 21.5-5.1 5-0.9 13.7-2.2 19.5-3 7.4-0.9 19-1.2 39.5-0.9zm-55.5 98.3c-4.1 1.6-10.9 4.9-15 7.4-4.1 2.4-10.7 6.9-14.5 9.9-3.8 3.1-10.4 9.2-14.5 13.5-4.1 4.4-10.7 12.5-14.6 18-4 5.4-9.7 14.4-12.9 19.9-3.1 5.5-8.1 15.2-11 21.5-2.9 6.3-6.8 16-8.8 21.5-1.9 5.5-4.4 12.9-5.6 16.5-1.1 3.6-3.2 11-4.5 16.5-1.4 5.5-3.5 15.2-4.8 21.5-2 10.2-2.3 14.4-2.3 37 0.1 25.1 0.1 25.7 2.9 34.5 1.5 5 4.3 11.9 6.2 15.5 1.9 3.6 5.1 8.5 7.2 11 2.1 2.5 6.5 6.3 9.8 8.5 3.2 2.1 8.6 4.9 11.9 6.1 3.3 1.2 10.3 2.7 15.5 3.4 6.7 0.8 12.2 0.8 18.5 0.1 5.1-0.5 13.8-2.5 20-4.5 6-2 14.8-5.7 19.4-8.3 4.6-2.7 11.6-7.5 15.5-10.8 3.9-3.4 10.2-9.2 13.9-13 3.7-3.9 9.9-11.3 13.8-16.5 3.9-5.2 9.8-14.2 13.1-20 3.4-5.8 8.9-16.6 12.3-24 3.4-7.4 8-18.7 10.2-25 2.3-6.3 5.5-16.7 7.2-23 1.6-6.3 4.2-17.8 5.7-25.5 2.4-12.6 2.7-16.4 2.8-37.5 0.1-21.6-0.1-24.2-2.2-32.5-1.3-5-4.2-12.8-6.5-17.5-2.9-5.9-6-10.3-10.2-14.5q-6-6.1-13.5-9.8c-4.1-2-11-4.3-15.3-5.2-4.2-0.8-11.9-1.5-17-1.4-5 0-12.8 0.9-17.2 1.9-4.4 1-11.4 3.1-15.5 4.8zm-459.8-90.8h138.4c110.1 0 138.4 0.3 138.4 1.3 0 0.6-5.8 20.2-25.5 85.7h-25c-13.8 0-51.5 0.3-142.6 1.5l-15.6 47.5c-8.5 26.1-15.7 48.1-15.9 48.8-0.3 0.9 16 1.2 79.1 1.2 62.6 0 79.6 0.3 80.1 1.3 0.3 0.6-3.9 16.3-9.5 34.7-5.5 18.4-11.3 37.7-15.6 52h-159.5l-4.5 14.3c-2.4 7.8-15.2 49-28.5 91.5-13.2 42.4-24 77.4-24 77.7 0 0.3-25.4 0.5-113 0.5l0.7-2.8c0.3-1.5 6.1-20.2 12.8-41.7 6.8-21.5 23.4-74.5 37-118 13.6-43.5 29.5-94.5 35.5-113.5 5.9-19 21.2-67.7 34-108.3zm788.3 0l93.5 0.3c63.9 0.3 95.8 0.8 101 1.6 4.1 0.6 10.6 1.6 14.5 2.2 3.8 0.6 9.4 1.8 12.5 2.6 3 0.8 9.1 2.7 13.5 4.1 4.4 1.4 10.7 3.9 14 5.5 3.3 1.7 8.4 4.9 11.5 7.3 3 2.3 8.7 7.6 12.7 11.8 5 5.3 8.3 9.9 10.7 14.9 1.8 4 4.4 10.4 5.6 14.2 1.9 6 2.3 10.1 2.7 27.5 0.4 16.7 0.2 22.5-1.2 31-1 5.8-2.9 14.4-4.3 19-1.3 4.7-4.1 12.2-6.2 16.5-2 4.4-6.1 11.9-9.2 16.5-3.1 4.7-9.1 12.2-13.5 16.6-4.3 4.4-10.8 10.1-14.3 12.6-3.6 2.5-9.9 6.5-14 8.8-4.2 2.3-12 6-17.5 8.2-5.5 2.2-15.9 5.5-23 7.4-7.2 1.8-16.8 3.8-21.3 4.4-4.5 0.6-8.2 1.3-8.2 1.5 0 0.3 2.3 1.3 5.2 2.2 2.9 1 7 3.3 9.2 5.3 2.1 1.9 5.6 6.3 7.8 9.5 2.1 3.3 4.9 9.4 6.2 13.5 1.3 4.2 3.3 12 4.4 17.5 1.1 5.5 2.7 17.3 3.6 26 0.8 8.8 4 44.8 7.1 80 3 35.3 5.5 65.3 5.5 69.5h-111l-0.5-3.2c-0.2-1.8-1.2-16.8-2-33.3-0.9-16.5-2.7-47.3-4.1-68.5-1.4-21.1-3.2-42.3-4.1-47-0.8-4.6-2.3-10.2-3.2-12.4-0.9-2.1-3.7-5.7-6.1-7.8-2.5-2.1-6.8-4.6-9.5-5.4-3.5-1.1-11.1-1.7-43-2.7l-1.8 4.9c-0.9 2.7-11.8 38.2-24.3 78.9-12.4 40.8-24.1 79.1-29.4 96.5h-54.8c-30.1 0-55.3-0.3-56.1-0.7-1-0.6 1.6-10 11.4-41.3 6.9-22.2 20.7-66.3 30.6-98 10-31.6 20.5-65.6 23.6-75.5 3-9.8 9.8-31.9 15.2-49 5.3-17 21.1-67.5 35.1-112.2zm78.7 100.7c-2.4 7.6-9.2 30.2-15.2 50.1-6.1 19.9-11 36.9-11 37.7 0 1.4 3.1 1.5 24.3 1 13.3-0.4 29.2-1.3 35.2-2.1 6.1-0.7 14.4-2.3 18.5-3.5 4.1-1.1 11.1-3.7 15.5-5.9 4.4-2.1 10.5-6 13.5-8.7 3-2.7 7.3-7.6 9.4-10.8 2.2-3.3 5.1-9.1 6.5-13 2.1-6 2.5-8.7 2.6-19.5 0-10.6-0.3-13.1-2.1-17-1.1-2.4-3.6-6.2-5.5-8.3-1.8-2.2-5.2-5-7.4-6.2-2.2-1.3-7.6-3.3-12-4.4-6.8-1.8-12.3-2.2-38-2.7l-30-0.6z"/><path class="c" d="m95.7 0.8c-0.3 0.4-18.1 55.6-39.6 122.7-21.6 67.1-41.2 129.7-43.6 139-2.4 9.4-5.5 22.9-6.9 30-1.4 7.1-3.2 18.3-4.1 24.7-0.8 6.5-1.5 18.8-1.5 27.3 0 8.5 0.5 19 1.1 23.2 0.6 4.3 1.9 11.2 2.9 15.3 1.1 4.1 3.1 10.3 4.5 13.7 1.4 3.5 4.4 9.5 6.8 13.4 2.3 4 7.6 10.8 11.7 15.2 4.1 4.3 10.4 10.1 14 12.7 3.6 2.7 10.5 6.9 15.5 9.3 5 2.5 13.3 6 18.5 7.8 5.2 1.7 14.7 4.2 21 5.5 6.3 1.3 16.5 2.8 22.5 3.5 6 0.6 19.8 1.1 30.5 1.1 10.7 0 24-0.5 29.5-1.1 5.5-0.7 14.5-2 20-3.1 5.5-1.1 14.1-3.1 19-4.5 4.9-1.5 13.7-4.6 19.5-7.1 5.8-2.4 14.1-6.5 18.5-9 4.4-2.5 11.6-7.1 16-10.2 4.3-3.1 13.6-11.3 20.5-18.2 7-6.9 15.8-16.8 19.7-22 3.9-5.2 10.3-14.7 14.3-21 4-6.3 11.4-20.1 16.5-30.5 5.2-10.4 12.7-27.6 16.8-38 4.2-10.4 10.5-27.8 14.2-38.5 3.6-10.7 23.5-73.6 44.1-139.8 20.6-66.1 37.4-120.6 37.4-121.2 0-0.7-19-1-55-1h-55c-1.5 5-15.8 50.2-32.9 103.5-17 53.4-35.3 111-40.6 128-5.3 17.1-12.4 38.2-15.6 47-3.3 8.8-9.2 22.5-13 30.5-3.9 8-9.9 18.8-13.3 24-3.5 5.2-9.7 12.9-13.7 17-4.1 4.1-9.6 9.1-12.4 11-2.7 1.8-8.2 4.8-12 6.6-3.8 1.8-10.5 4-14.8 4.8-4.2 0.9-10.5 1.6-13.9 1.6-3.5 0-9.5-0.7-13.3-1.6-3.8-0.8-9.7-2.9-12.9-4.7-3.2-1.8-8.1-5.7-10.8-8.7-2.8-3-6-7.7-7.3-10.5-1.3-2.7-3.1-7.9-3.9-11.5-0.9-3.6-1.6-11-1.6-16.7 0-5.7 0.7-13.6 1.5-17.5 0.9-4 2.5-10.4 3.6-14.3 1.1-3.9 21.6-69.1 45.4-145 23.8-75.9 43.6-139.2 43.9-140.8l0.6-2.7c-86.7 0-112.1 0.3-112.3 0.8zm353 227.5c-39.5 125.5-71.8 228.5-71.7 229 0 0.4 23.5 0.7 52.3 0.7h52.2c74.4-244.9 96.1-315.8 96.2-315.7 0.1 0.1 10.6 69.7 23.3 154.7 12.7 85 23.3 156 23.5 157.8l0.5 3.2c107 0 138-0.2 138-0.5 0-0.3 32.2-103.1 71.5-228.5 39.3-125.4 71.5-228.2 71.5-228.5 0-0.3-23.6-0.5-52.5-0.5h-52.5c-3.2 11.2-24.4 80.9-49.1 162-24.8 81.1-45.5 149.1-46.1 151-1 3.1-4-16.2-23.9-154.5-12.5-86.9-22.8-158.1-22.8-158.3-0.1-0.1-31.3-0.2-69.4-0.2h-69.2zm522.9-214c-2.5 7.8-34.2 110.2-70.5 227.5-36.3 117.4-66 214-66.1 214.8 0 1.3 7.5 1.4 55.7 1.2l55.7-0.2c109.7-354.2 141.6-457.2 141.6-457.3 0-0.1-25.2-0.2-56-0.2h-56zm145.6 30.5c-7.8 24.6-14.2 45-14.2 45.5 0 0.4 23 0.7 51.1 0.7 40.3 0 50.9 0.3 50.6 1.3-0.2 0.6-25.9 82.4-57.1 181.7-31.1 99.3-56.8 181.3-57.1 182.3-0.4 1.6 2.7 1.7 55.8 1.7h56.3l115.1-366.5 102.9-0.6c21.7-68.2 28.1-88.7 28.2-89.5 0.2-1.2-20.8-1.4-158.6-1.4h-158.8zm372.5-44c-0.3 0.4-32.7 102.7-72.1 227.3-39.4 124.5-71.8 227.2-72.1 228.2-0.4 1.7 7.1 1.8 149 1.8h149.5c4.9-15.9 10.9-35.6 16.6-54l10.3-33.5-187.9-0.5c1-3.5 7.8-25 15.7-50 7.9-25.1 14.8-47 15.4-48.8l0.9-3.2 171.4-0.5c21.4-66.7 27.6-86.4 27.6-86.8 0-0.4-38.4-0.7-85.5-0.7-47 0-85.4-0.4-85.4-0.8 0-0.4 6.7-21.2 14.8-46.2l14.7-45.5c140.6-0.4 181.4-0.7 181.4-0.8 0-0.1 5.9-19.4 13-42.7 7.2-23.4 13.1-42.9 13.1-43.3-0.1-0.4-65.3-0.7-145-0.7-79.7 0-145.2 0.3-145.4 0.7z"/></svg>