<?xml version="1.0" encoding="UTF-8" standalone="no"?>
<!-- Created with Inkscape (http://www.inkscape.org/) -->

<svg
   version="1.1"
   id="svg1"
   width="106.65174"
   height="106.66643"
   viewBox="0 0 106.65174 106.66643"
   sodipodi:docname="rotary-moe.svg"
   inkscape:version="1.4.2 (f4327f4, 2025-05-13)"
   xmlns:inkscape="http://www.inkscape.org/namespaces/inkscape"
   xmlns:sodipodi="http://sodipodi.sourceforge.net/DTD/sodipodi-0.dtd"
   xmlns="http://www.w3.org/2000/svg"
   xmlns:svg="http://www.w3.org/2000/svg">
  <defs
     id="defs1" />
  <sodipodi:namedview
     id="namedview1"
     pagecolor="#505050"
     bordercolor="#eeeeee"
     borderopacity="1"
     inkscape:showpageshadow="0"
     inkscape:pageopacity="0"
     inkscape:pagecheckerboard="0"
     inkscape:deskcolor="#505050"
     inkscape:zoom="6.0176473"
     inkscape:cx="-29.164222"
     inkscape:cy="65.391005"
     inkscape:window-width="2560"
     inkscape:window-height="1369"
     inkscape:window-x="1912"
     inkscape:window-y="-8"
     inkscape:window-maximized="1"
     inkscape:current-layer="svg1" />
  <path
     id="path2"
     d="m -43.91754,40.200397 c -3.05107,0.1828 -6.05827,1.928134 -7.9296,3.257334 v -1.882934 c 0,-0.6348 -0.51307,-1.1452 -1.1548,-1.1452 h -4.61453 c -0.64067,0 -1.1568,0.5104 -1.1568,1.1452 v 27.9704 c 0,0.636933 0.51613,1.145866 1.1568,1.145866 h 4.61453 c 0.64173,0 1.1548,-0.508933 1.1548,-1.145866 V 50.213464 c 1.03853,-0.8704 4.26347,-3.289067 8.1044,-3.625067 0.59067,-0.0552 1.048,-0.5484 1.048,-1.145333 v -4.0968 c 0,-0.321867 -0.12667,-0.619867 -0.364,-0.831867 -0.224,-0.2208 -0.54267,-0.341066 -0.8588,-0.314 z m -36.025999,17.385467 c -2.714133,0.256133 -3.999467,1.4968 -3.999467,3.884266 0,1.4724 0.401067,3.9516 3.087467,3.9516 3.199467,0 7.536929,-1.2068 7.585999,-1.2188 v 0 -6.971866 z m 13.587999,-7.6344 V 70.01493 c 0,0.338 -0.1464,0.6532 -0.39733,0.8688 -0.25107,0.219734 -0.58707,0.317733 -0.912,0.274933 -2.348,-0.333866 -3.46307,-1.0676 -4.57614,-1.920266 v 0 c -0.0504,0.02133 -5.239996,2.116133 -9.884262,2.116133 -5.586534,0 -8.791733,-3.5292 -8.791733,-9.6932 0,-6.021865 2.935466,-8.687466 10.130799,-9.225466 l 7.516666,-0.6016 v -1.8256 c 0,-2.310934 -1.37453,-3.635867 -3.7636,-3.635867 -3.291599,0 -7.992132,0.3844 -10.492666,0.608267 -0.316666,0.0328 -0.630266,-0.0656 -0.8724,-0.275467 -0.2292,-0.202133 -0.374533,-0.507333 -0.3912,-0.815066 l -0.144266,-3.838534 c -0.03067,-0.583333 0.396933,-1.093333 0.9604,-1.1808 2.238533,-0.354133 7.822933,-1.1672 11.307332,-1.1672 7.0364,0 10.3104,3.258934 10.3104,10.247467 z m -96.01506,-14.4344 h -2.53128 c -2.82292,0 -4.43282,0.2156 -5.24792,0.376 v 11.955733 c 1.35,0.0948 3.95,0.231333 7.4432,0.1932 4.50626,-0.04627 7.30986,-2.438 7.30986,-6.237466 0,-3.038534 -1.83333,-6.287467 -6.97386,-6.287467 z m 14.54786,33.566133 c 0.15054,0.352133 0.1156,0.760934 -0.0875,1.0912 -0.22186,0.326533 -0.5828,0.516666 -0.9708,0.516666 h -5.36146 c -0.45627,0 -0.8724,-0.265733 -1.04694,-0.681333 l -6.87133,-15.4588 c -3.42031,-0.02507 -6.38803,-0.205733 -7.98907,-0.320799 v 15.315066 c 0,0.636933 -0.50833,1.145866 -1.1427,1.145866 h -4.79166 c -0.63959,0 -1.1599,-0.508933 -1.1599,-1.145866 V 30.768664 c 0,-0.587066 0.44167,-1.0772 1.02552,-1.143333 6.15677,-0.6952 11.07917,-0.766667 12.90675,-0.766667 0.6292,0 0.95946,0.0052 0.95946,0.0052 11.81347,0 14.28747,6.975067 14.28747,12.8152 0,4.8796 -2.32867,8.406266 -7.1188,10.781733 z m 134.652,-28.209333 c -0.212,-0.280267 -0.54533,-0.444267 -0.9,-0.444267 h -4.49067 c -0.52,0 -0.96933,0.348934 -1.10533,0.854134 l -6.012,22.675999 h -0.46667 l -6.01866,-22.675999 c -0.12934,-0.5052 -0.588,-0.854134 -1.112,-0.854134 h -4.47734 c -0.36,0 -0.696,0.164 -0.91333,0.444267 -0.21333,0.284267 -0.28933,0.649467 -0.20267,0.990533 l 6.62267,25.433866 c 0.33067,1.261467 1.49467,3.3928 3.80133,3.3928 h 1.28667 c -0.11333,0.428534 -0.22667,0.883734 -0.35333,1.2724 l -0.06,0.192667 c -0.36134,1.172933 -0.9,2.9464 -4.176,2.9464 l -5.72534,-0.352666 c -0.32933,-0.02347 -0.64,0.0932 -0.872,0.324932 -0.23466,0.229734 -0.36,0.545868 -0.344,0.8724 l 0.14,2.999067 c 0.0187,0.5088 0.37334,0.937467 0.872,1.0624 1.688,0.417733 4.912,0.903733 7.56667,1.004267 0.12667,0.0088 0.23867,0.0088 0.36267,0.0088 v 0 c 4.32,0 7.25466,-2.795867 8.73333,-8.301067 1.71467,-6.447333 3.86,-14.741599 5.43067,-20.800533 0.70933,-2.7276 1.32,-5.074933 1.756,-6.749999 l 0.86266,-3.300934 c 0.0987,-0.345866 0.0133,-0.711066 -0.20533,-0.995333 z M -123.4206,55.41293 c 0,-6.770933 -1.8396,-9.403199 -6.54587,-9.403199 -4.88067,0 -6.6156,2.457866 -6.6156,9.403199 0,6.2952 1.0536,9.701467 6.6156,9.701467 5.47347,0 6.54587,-3.5588 6.54587,-9.701467 z m 7.03066,0 c 0,11.023333 -4.1896,15.9416 -13.57653,15.9416 -9.43747,0 -13.64693,-4.918267 -13.64693,-15.9416 0,-10.865199 4.20946,-15.708933 13.64693,-15.708933 9.26453,0 13.57653,4.985467 13.57653,15.708933 z m 21.820401,10.3672 0.2,3.802 c 0.02853,0.5672 -0.374533,1.0808 -0.931333,1.185467 -1.606267,0.294266 -3.815067,0.658266 -5.203598,0.658266 -6.9724,0 -9.09693,-2.668133 -9.09693,-11.401066 v -13.3468 h -2.67187 c -0.63587,0 -1.14893,-0.5208 -1.14893,-1.156266 v -3.946934 c 0,-0.6348 0.51306,-1.1452 1.14893,-1.1452 h 2.67187 v -4.694266 c 0,-0.531334 0.36413,-0.9928 0.87346,-1.115734 l 4.6208,-1.126533 c 0.34014,-0.07813 0.70374,-0.0052 0.9792,0.2104 0.2776,0.2204 0.4412,0.551067 0.4412,0.905733 v 5.8204 h 7.043735 c 0.6292,0 1.1416,0.5104 1.1416,1.1452 v 3.946934 c 0,0.635466 -0.5124,1.156266 -1.1416,1.156266 h -7.043735 v 12.370267 c 0,4.278666 0.15054,5.762533 3.153068,5.762533 1.105733,0 2.842667,-0.0724 3.7724,-0.1224 0.616133,-0.01307 1.173467,0.449466 1.191733,1.091733"
     style="fill:currentColor"
     inkscape:label="Rotary"
     sodipodi:insensitive="true" />
  <path
     id="path4"
     style="fill:currentColor"
     d="m 81.32259,42.243064 c 0.39867,0.133867 0.556,0.5756 0.67867,1.009467 2.07733,6.985333 2.07733,12.960933 0,20.001466 -0.168,0.6052 -0.412,0.938 -0.73334,1.069333 -0.46266,0.1416 -0.972,-0.190666 -1.39733,-0.5052 L 66.26792,54.586264 c -0.52266,-0.348934 -0.83066,-0.8244 -0.83066,-1.332267 0,-0.500533 0.3,-0.975467 0.83066,-1.339067 l 13.60267,-9.218666 c 0.61333,-0.442267 1.09333,-0.581333 1.452,-0.4532 z M 76.33726,73.03733 c -5.03867,5.3052 -10.19867,8.291733 -17.30134,9.993733 -0.60266,0.152133 -1.01866,0.104267 -1.27733,-0.109333 -0.372,-0.312534 -0.32267,-0.935467 -0.28667,-1.472934 l 1.17867,-16.393733 c 0.0747,-0.636933 0.32667,-1.1192 0.77467,-1.3864 0.436,-0.235466 0.99466,-0.215733 1.54533,0.0484 l 14.79333,7.163067 c 0.69067,0.340533 1.06,0.676533 1.132,1.044267 0.072,0.411866 -0.22933,0.7744 -0.55866,1.112933 z M 53.32659,62.69413 c -5.29867,0 -9.60533,-4.306266 -9.60533,-9.600533 0,-3.232267 1.612,-6.2328 4.32,-8.0192 0.89066,-0.596933 2.09466,-0.3412 2.684,0.545734 0.588,0.8948 0.34933,2.100533 -0.54667,2.689066 -1.61733,1.064133 -2.576,2.850533 -2.576,4.7844 0,3.152667 2.57067,5.725067 5.724,5.725067 3.16,0 5.728,-2.5724 5.728,-5.725067 0,-1.933867 -0.95867,-3.728667 -2.58,-4.7896 -0.892,-0.592133 -1.13467,-1.7948 -0.54133,-2.686933 0.58533,-0.886533 1.79333,-1.1396 2.68133,-0.550533 2.7,1.789599 4.32,4.786933 4.32,8.027066 0,5.294267 -4.31067,9.600533 -9.608,9.600533 z m -4.216,20.4656 c -0.32667,0.264666 -0.77867,0.184933 -1.22667,0.0704 -7.06266,-1.684934 -12.25466,-4.674 -17.304,-10.001067 -0.368,-0.381866 -0.54266,-0.7172 -0.54266,-1.0188 0,-0.05413 0,-0.08747 0.009,-0.1468 0.0693,-0.466266 0.64,-0.7396 1.116,-0.969866 l 14.79067,-7.1776 c 0.57733,-0.2692 1.13466,-0.283334 1.57066,-0.026 0.42667,0.252533 0.69334,0.733333 0.74267,1.3572 l 1.19733,16.417733 c 0.0467,0.779733 -0.068,1.2568 -0.35333,1.4948 z M 26.80792,63.922797 c -0.64,0.438533 -1.116,0.5964 -1.47866,0.466133 -0.40267,-0.139066 -0.53734,-0.581733 -0.664,-1.017733 -2.092,-6.977067 -2.092,-12.961467 -0.0253,-19.9984 0.17867,-0.6032 0.432,-0.935466 0.75334,-1.0532 0.47333,-0.1692 0.96933,0.1776 1.41466,0.482934 l 13.588,9.244266 c 0.51334,0.339467 0.812,0.814533 0.812,1.328 0,0.493333 -0.29866,0.9688 -0.792,1.327733 z m 3.51067,-30.366666 h 0.009 c 5.05867,-5.314133 10.23734,-8.310933 17.30267,-10.0052 0.436,-0.0984 0.90267,-0.182267 1.21333,0.09627 0.3,0.233866 0.404,0.714666 0.34934,1.502133 l -1.196,16.382266 c -0.0373,0.630267 -0.29867,1.126534 -0.74134,1.3688 -0.43066,0.259334 -0.99333,0.245867 -1.55466,-0.03227 L 30.91959,35.710263 c -0.484,-0.2396 -1.04666,-0.4932 -1.14533,-0.9812 -0.0467,-0.335467 0.11733,-0.728667 0.544,-1.172933 z M 57.77592,23.513464 c 0.33867,-0.2756 0.78667,-0.188133 1.23067,-0.09587 7.06267,1.709866 12.24933,4.694266 17.312,10.012933 0.35867,0.3792 0.552,0.733866 0.552,1.048 0,0.0296 -0.009,0.07867 -0.009,0.1244 -0.108,0.485466 -0.64934,0.742266 -1.13334,0.974533 l -14.78933,7.162533 c -0.584,0.275467 -1.128,0.302534 -1.55467,0.03747 -0.436,-0.25 -0.708,-0.736 -0.756,-1.371866 l -1.192,-16.3844 c -0.0493,-0.782267 0.0573,-1.265067 0.34,-1.507734 z m -4.424,-5.651599 c -19.376,0 -35.14666,15.773466 -35.14666,35.1552 0,19.390665 15.77066,35.159864 35.14666,35.159864 19.38267,0 35.15867,-15.769198 35.15867,-35.159864 0,-19.381733 -15.776,-35.1552 -35.15867,-35.1552 m 0,75.121865 c -22.02533,0 -39.95466,-17.928666 -39.95466,-39.966665 0,-22.035466 17.92933,-39.960933 39.95466,-39.960933 22.03734,0 39.95867,17.925467 39.95867,39.960933 0,22.037999 -17.92133,39.966665 -39.95867,39.966665 z m 53.20667,-41.3052 -0.0107,-0.149999 -0.11466,-0.06613 c -2.26134,-1.371333 -5.228,-2.143732 -8.128,-2.206266 -0.0573,-0.384934 -0.42134,-3.1016 -0.46667,-3.488534 2.77333,-0.785466 5.43067,-2.291733 7.29333,-4.219865 l 0.0973,-0.0896 -0.028,-0.147866 c -0.13734,-1.033334 -0.53067,-2.473467 -0.88667,-3.346801 l -0.06,-0.1308 -0.14,-0.03547 c -2.55067,-0.727999 -5.60533,-0.709333 -8.41067,0 -0.13333,-0.359866 -1.17066,-2.864 -1.31866,-3.215065 2.46933,-1.506801 4.63733,-3.641601 5.93866,-5.955201 l 0.0707,-0.111467 -0.052,-0.1448 c -0.37333,-0.889066 -1.12667,-2.1792 -1.72667,-2.9948 l -0.0813,-0.112 h -0.15333 c -2.62534,-0.0572 -5.55734,0.747467 -8.14134,2.138667 -0.22666,-0.316267 -1.90933,-2.506267 -2.13866,-2.811466 2.01466,-2.076134 3.552,-4.708399 4.212,-7.282933 l 0.0387,-0.144667 -0.0987,-0.109467 c -0.6,-0.790133 -1.64534,-1.851467 -2.43067,-2.471333 l -0.108,-0.0812 -0.148,0.02187 c -2.58133,0.6536 -5.2,2.1984 -7.28267,4.200534 -0.31866,-0.243334 -2.50133,-1.9532 -2.81733,-2.21 1.39067,-2.454134 2.20533,-5.294266 2.20533,-7.9129325 0,-0.07347 -0.0133,-0.353734 -0.0133,-0.353734 l -0.11067,-0.0848 c -0.80533,-0.6328 -2.08133,-1.3636 -3.008,-1.740133 l -0.12666,-0.0464 -0.11734,0.06253 c -2.316,1.288 -4.44,3.442666 -5.93066,5.9109325 -0.37334,-0.144265 -3.02934,-1.2604 -3.38,-1.412533 0.35066,-1.3910665 0.568,-2.8238665 0.568,-4.2551995 0,-1.440533 -0.17334,-2.859333 -0.568,-4.1432 l -0.032,-0.133867 -0.14267,-0.05467 c -0.876,-0.376 -2.27867,-0.760933 -3.316,-0.9104 l -0.15467,-0.02453 -0.092,0.1 c -1.916,1.857867 -3.42,4.503734 -4.216,7.2808 -0.39466,-0.06613 -3.14133,-0.4068 -3.56,-0.45 -0.036,-2.878133 -0.81066,-5.824 -2.18,-8.114666 l -0.068,-0.130667 -0.14533,-0.0063 c -0.99067,-0.125466 -2.492,-0.125466 -3.46133,0 l -0.15467,0.0063 -0.068,0.130667 c -1.35867,2.266133 -2.12533,5.212 -2.17467,8.105733 -0.4,0.05213 -3.18933,0.3928 -3.59333,0.458933 -0.79867,-2.790666 -2.30533,-5.448 -4.21333,-7.2964 l -0.10667,-0.107333 -0.156,0.02293 c -1.02667,0.152667 -2.448,0.533867 -3.32533,0.8912 l -0.132,0.05733 -0.052,0.133733 c -0.36,1.304267 -0.55334,2.7412 -0.55334,4.195334 0,1.404266 0.224,2.848 0.55334,4.2245335 -0.34934,0.150533 -3.02934,1.3036 -3.38934,1.4484 C 32.74928,9.8941265 30.62128,7.7263925 28.31061,6.4222595 l -0.12533,-0.07347 -0.14534,0.04893 c -0.888,0.3896 -2.17333,1.131867 -2.98666,1.7428 l -0.12667,0.07707 c 0,0 0,0.309867 0,0.383333 0,2.5910665 0.80267,5.4415995 2.18133,7.9129335 -0.3,0.249066 -2.316,1.8256 -2.61866,2.0704 -2.076,-2.007334 -4.70267,-3.551067 -7.29333,-4.221867 l -0.132,-0.02707 -0.1,0.0948 c -0.79467,0.5952 -1.864,1.642667 -2.47467,2.4364 l -0.0893,0.114 0.0333,0.138667 c 0.648,2.572267 2.192,5.2052 4.19467,7.3 -0.21867,0.307733 -1.97467,2.593733 -2.21867,2.909866 -2.512,-1.404666 -5.43733,-2.233333 -8.11733,-2.195866 l -0.13467,0.0063 -0.088,0.1192 c -0.58667,0.780267 -1.328,2.040134 -1.73467,3 l -0.0573,0.126134 0.0707,0.130666 c 1.284,2.304667 3.45866,4.4568 5.94,5.963067 -0.13467,0.3536 -1.152,2.833866 -1.308,3.193733 -2.852,-0.7068 -5.892,-0.715067 -8.42934,0.02453 l -0.136,0.03533 -0.0507,0.1224 C 1.9893,38.743612 1.60263,40.145212 1.45463,41.202012 l -0.0173,0.144267 0.10133,0.111867 c 1.852,1.903733 4.51067,3.409466 7.288,4.1808 -0.0573,0.3932 -0.416,3.136399 -0.46533,3.513599 -2.888,0.05467 -5.86,0.8176 -8.128,2.179067 L 0.108,51.402942 0.0947,51.550409 C 0.0374,52.046809 0,52.664942 0,53.290009 c 0,0.619733 0.0373,1.232267 0.0947,1.727067 l 0.0133,0.1416 0.12533,0.0652 c 2.268,1.357733 5.21467,2.135333 8.12,2.178133 0.0573,0.397333 0.444,3.215066 0.49333,3.602 -2.78533,0.8172 -5.42266,2.3412 -7.27466,4.2432 l -0.1,0.118267 0.0133,0.128133 c 0.16133,1.041733 0.54267,2.476534 0.90267,3.340666 l 0.056,0.1292 0.132,0.0432 c 2.57066,0.733868 5.61066,0.702534 8.43333,0 0.144,0.3568 1.236,2.852 1.38533,3.212 -2.46933,1.4796 -4.63333,3.6192 -5.94133,5.933333 l -0.0613,0.129067 0.048,0.1324 c 0.37866,0.907733 1.136,2.1932 1.73866,2.9952 l 0.0907,0.114667 0.12933,0.0052 c 2.65334,0.03747 5.584,-0.748 8.12934,-2.152667 0.23733,0.298533 1.95733,2.538 2.18266,2.843733 -1.99733,2.044267 -3.54933,4.665733 -4.20933,7.276667 l -0.036,0.133333 0.0853,0.114533 c 0.61067,0.7812 1.66534,1.827067 2.44267,2.459867 l 0.11467,0.098 0.13733,-0.04587 c 2.57467,-0.640666 5.18933,-2.174533 7.29333,-4.187466 0.31867,0.245733 2.544,1.9588 2.872,2.202 -1.36933,2.514133 -2.168,5.38128 -2.168,7.991173 0,0.05417 0,0.29272 0,0.29272 l 0.13067,0.09791 c 0.77333,0.589066 2.03733,1.309373 2.98133,1.733855 l 0.13067,0.0469 0.136,-0.0667 c 2.32,-1.294265 4.46266,-3.465625 5.96533,-5.967705 0.348,0.142706 2.792,1.134373 3.15067,1.27708 -0.34934,1.37812 -0.55067,2.79844 -0.55067,4.19844 0,1.468225 0.192,2.903635 0.56533,4.194265 l 0.0333,0.13647 0.14266,0.0526 c 0.87867,0.37552 2.29334,0.76041 3.33067,0.9276 l 0.15467,0.0214 0.1,-0.11511 c 1.92133,-1.86771 3.42133,-4.52448 4.172,-7.274479 0.404,0.06563 3.21466,0.463547 3.608,0.505214 0.056,2.902595 0.836,5.855715 2.196,8.106765 l 0.06,0.12396 0.156,0.0177 c 0.99866,0.1276 2.48266,0.1276 3.46,0 l 0.14266,-0.0177 0.0707,-0.12396 c 1.35067,-2.25105 2.12533,-5.20834 2.19867,-8.123432 0.392,-0.05417 3.02533,-0.42292 3.41866,-0.488547 0.776,2.796879 2.28667,5.429689 4.208,7.295309 l 0.10534,0.0943 0.128,-0.0109 c 1.04933,-0.16561 2.472,-0.53437 3.356,-0.89427 l 0.12533,-0.063 0.044,-0.12917 c 0.37333,-1.30052 0.54267,-2.72708 0.54267,-4.191669 0,-1.417706 -0.2,-2.863546 -0.54267,-4.25468 0.36133,-0.136466 2.91467,-1.241666 3.272,-1.401573 1.504,2.479173 3.64133,4.65104 5.94667,5.953132 l 0.11466,0.0573 0.136,-0.0505 c 0.91734,-0.378129 2.21334,-1.124475 3.00934,-1.746875 l 0.11466,-0.06719 c 0,0 0.009,-0.306253 0.009,-0.391147 0,-2.555213 -0.80934,-5.40788 -2.15334,-7.90788 0.30134,-0.238533 2.41067,-1.878 2.71067,-2.119733 2.10667,2.000533 4.732,3.5396 7.30667,4.205733 l 0.13733,0.03747 0.10533,-0.09787 c 0.78534,-0.616666 1.85467,-1.673466 2.46667,-2.438533 l 0.0947,-0.1256 -0.048,-0.125467 c -0.64,-2.569333 -2.172,-5.198933 -4.18,-7.298399 0.23333,-0.308934 1.93466,-2.544267 2.164,-2.861467 2.54933,1.404133 5.48,2.207733 8.11733,2.1516 h 0.14533 l 0.0867,-0.1068 c 0.62933,-0.804667 1.35733,-2.0636 1.736,-3.0156 l 0.0587,-0.1204 -0.0693,-0.127067 c -1.25866,-2.2656 -3.41466,-4.4224 -5.884,-5.975466 0.14267,-0.354267 1.152,-2.817733 1.30134,-3.171333 2.8,0.720266 5.84,0.744666 8.39733,0 l 0.124,-0.0428 0.0573,-0.127067 c 0.37467,-0.9016 0.756,-2.298932 0.916,-3.335467 l 0.016,-0.144666 -0.108,-0.109467 c -1.85333,-1.921867 -4.49466,-3.410933 -7.25066,-4.2 0.06,-0.3844 0.43466,-3.026533 0.47333,-3.416133 2.91867,-0.05053 5.88533,-0.828133 8.14667,-2.192133 l 0.11466,-0.0724 0.0107,-0.1532 c 0.068,-0.480134 0.0933,-1.1104 0.0933,-1.729067 0,-0.6224 -0.0253,-1.233333 -0.0933,-1.718267"
     inkscape:label="Wheel" />
</svg>
