<svg xmlns="http://www.w3.org/2000/svg" width="252" height="80"><path d="M133.327 11.342c-3.052.183-6.059 1.928-7.93 3.257v-1.883c0-.635-.513-1.145-1.155-1.145h-4.614c-.641 0-1.157.51-1.157 1.145v27.97c0 .637.516 1.146 1.157 1.146h4.614c.642 0 1.155-.509 1.155-1.145V21.355c1.038-.87 4.263-3.29 8.104-3.625a1.153 1.153 0 0 0 1.048-1.146v-4.096a1.1 1.1 0 0 0-.364-.832 1.1 1.1 0 0 0-.858-.314M97.3 28.727c-2.715.256-4 1.497-4 3.884 0 1.473.401 3.952 3.088 3.952 3.199 0 7.536-1.207 7.586-1.219v-6.972zm13.588-7.634v20.063a1.16 1.16 0 0 1-1.31 1.144c-2.348-.334-3.463-1.068-4.576-1.92-.05.021-5.24 2.116-9.884 2.116-5.587 0-8.792-3.53-8.792-9.693 0-6.022 2.936-8.688 10.13-9.226l7.518-.601V21.15c0-2.31-1.375-3.636-3.764-3.636-3.292 0-7.992.385-10.493.608a1.15 1.15 0 0 1-.872-.275 1.2 1.2 0 0 1-.391-.815l-.145-3.839a1.143 1.143 0 0 1 .96-1.18c2.24-.355 7.824-1.168 11.308-1.168 7.037 0 10.31 3.26 10.31 10.248M14.874 6.658h-2.532c-2.823 0-4.433.216-5.248.376V18.99c1.35.095 3.95.231 7.443.193 4.507-.046 7.31-2.438 7.31-6.237 0-3.039-1.833-6.288-6.974-6.288M29.42 40.225c.15.352.116.76-.087 1.09a1.17 1.17 0 0 1-.97.517h-5.362a1.13 1.13 0 0 1-1.047-.68l-6.872-15.46c-3.42-.025-6.388-.205-7.989-.32v15.315a1.14 1.14 0 0 1-1.142 1.145H1.16c-.64 0-1.16-.509-1.16-1.145V1.91C0 1.323.442.833 1.026.767 7.182.07 12.105 0 13.932 0c.63 0 .96.005.96.005 11.813 0 14.287 6.975 14.287 12.815 0 4.88-2.328 8.407-7.119 10.782zm134.652-28.21a1.13 1.13 0 0 0-.9-.444h-4.49c-.52 0-.97.349-1.106.854l-6.012 22.676h-.466l-6.019-22.676a1.14 1.14 0 0 0-1.112-.854h-4.477c-.36 0-.696.164-.914.444-.213.284-.289.65-.202.99l6.622 25.435c.331 1.261 1.495 3.392 3.802 3.392h1.286c-.113.429-.226.884-.353 1.273l-.06.192c-.361 1.173-.9 2.947-4.176 2.947l-5.725-.353c-.33-.023-.64.093-.872.325-.235.23-.36.546-.344.873l.14 2.999c.018.508.373.937.872 1.062 1.688.418 4.912.904 7.566 1.004.127.01.239.01.363.01 4.32 0 7.255-2.797 8.733-8.302 1.715-6.447 3.86-14.742 5.431-20.8l1.756-6.75.863-3.301a1.13 1.13 0 0 0-.206-.996m-110.25 14.54c0-6.772-1.84-9.404-6.545-9.404-4.881 0-6.616 2.458-6.616 9.403 0 6.295 1.054 9.702 6.616 9.702 5.473 0 6.545-3.56 6.545-9.702m7.031 0c0 11.023-4.19 15.94-13.576 15.94-9.438 0-13.647-4.917-13.647-15.94 0-10.866 4.21-15.71 13.647-15.71 9.264 0 13.576 4.986 13.576 15.71m21.82 10.366.2 3.802a1.155 1.155 0 0 1-.93 1.186c-1.607.294-3.816.658-5.204.658-6.973 0-9.097-2.668-9.097-11.4V17.818H64.97c-.636 0-1.15-.52-1.15-1.156v-3.947c0-.635.514-1.145 1.15-1.145h2.672V6.877c0-.532.364-.993.873-1.116l4.621-1.127c.34-.078.704-.005.98.21.277.221.44.552.44.907v5.82h7.044c.63 0 1.142.51 1.142 1.145v3.947c0 .636-.513 1.156-1.142 1.156h-7.044v12.37c0 4.28.15 5.763 3.153 5.763 1.106 0 2.843-.072 3.773-.122.616-.013 1.173.45 1.192 1.091M258.567 13.384c.398.134.556.576.678 1.01 2.078 6.985 2.078 12.96 0 20.001-.168.606-.412.938-.733 1.07-.463.141-.972-.191-1.397-.506l-13.603-9.231c-.523-.35-.83-.825-.83-1.333 0-.5.3-.975.83-1.339l13.603-9.218c.613-.443 1.093-.582 1.452-.454M253.58 44.18c-5.038 5.305-10.198 8.291-17.301 9.993-.603.153-1.019.105-1.277-.109-.372-.312-.323-.935-.287-1.473l1.179-16.394c.074-.637.326-1.119.774-1.386.436-.235.995-.216 1.546.048l14.793 7.163c.69.341 1.06.677 1.132 1.045.072.412-.23.774-.559 1.113m-23.01-10.344c-5.299 0-9.606-4.306-9.606-9.6a9.59 9.59 0 0 1 4.32-8.02 1.935 1.935 0 0 1 2.684.546c.588.895.35 2.101-.546 2.69a5.7 5.7 0 0 0-2.576 4.784 5.736 5.736 0 0 0 5.724 5.725 5.735 5.735 0 0 0 5.728-5.725 5.7 5.7 0 0 0-2.58-4.79 1.94 1.94 0 0 1 2.14-3.237 9.61 9.61 0 0 1 4.32 8.027c0 5.294-4.311 9.6-9.608 9.6m-4.216 20.466c-.327.265-.779.185-1.227.07-7.063-1.684-12.255-4.674-17.304-10-.368-.382-.543-.718-.543-1.02 0-.054 0-.087.01-.146.069-.466.64-.74 1.115-.97l14.791-7.178c.577-.269 1.135-.283 1.57-.026.427.253.694.734.743 1.358l1.198 16.417c.046.78-.068 1.257-.354 1.495zm-22.303-19.237c-.64.439-1.116.597-1.479.466-.402-.139-.537-.581-.664-1.017-2.092-6.978-2.092-12.962-.025-19.999.179-.603.432-.935.753-1.053.474-.17.97.178 1.415.483l13.588 9.244c.513.34.812.815.812 1.328 0 .493-.299.969-.792 1.328zm3.51-30.367h.01c5.058-5.314 10.237-8.31 17.302-10.005.436-.098.903-.182 1.214.097.3.233.404.714.349 1.502l-1.196 16.382c-.037.63-.299 1.126-.741 1.369-.431.26-.994.246-1.555-.033l-14.781-7.157c-.484-.24-1.047-.494-1.146-.982-.046-.335.118-.728.544-1.173zM235.02-5.345c.339-.276.787-.188 1.23-.096 7.063 1.71 12.25 4.694 17.313 10.013.358.38.552.734.552 1.048 0 .03-.01.079-.01.124-.107.486-.649.743-1.133.975l-14.789 7.162c-.584.276-1.128.303-1.555.038-.436-.25-.708-.736-.756-1.372L234.68-3.837c-.049-.783.058-1.266.34-1.508zm-4.424-5.652c-19.376 0-35.147 15.774-35.147 35.155 0 19.391 15.771 35.16 35.147 35.16 19.383 0 35.159-15.769 35.159-35.16 0-19.381-15.776-35.155-35.159-35.155m0 75.122c-22.025 0-39.955-17.929-39.955-39.967 0-22.035 17.93-39.96 39.955-39.96 22.037 0 39.959 17.925 39.959 39.96 0 22.038-17.922 39.967-39.959 39.967m53.207-41.305-.011-.15-.115-.066c-2.261-1.372-5.228-2.144-8.128-2.207a340 340 0 0 1-.466-3.488c2.773-.786 5.43-2.292 7.293-4.22l.097-.09-.028-.147c-.137-1.034-.53-2.474-.886-3.347l-.06-.131-.14-.035c-2.551-.728-5.606-.71-8.411 0-.133-.36-1.17-2.864-1.319-3.216 2.47-1.506 4.638-3.641 5.939-5.955l.07-.111-.051-.145c-.374-.89-1.127-2.18-1.727-2.995l-.081-.112h-.154c-2.625-.057-5.557.748-8.141 2.139-.227-.316-1.91-2.506-2.139-2.812 2.015-2.076 3.552-4.708 4.212-7.283l.039-.144-.099-.11c-.6-.79-1.645-1.851-2.43-2.471l-.108-.081-.148.022c-2.582.653-5.2 2.198-7.283 4.2a349 349 0 0 1-2.817-2.21c1.39-2.454 2.205-5.294 2.205-7.913 0-.073-.013-.353-.013-.353l-.111-.085c-.805-.633-2.081-1.364-3.008-1.74l-.127-.047-.117.063c-2.316 1.288-4.44 3.442-5.93 5.91-.374-.144-3.03-1.26-3.38-1.412.35-1.39.567-2.824.567-4.255 0-1.44-.173-2.86-.568-4.143l-.032-.134-.142-.055c-.876-.376-2.279-.76-3.316-.91l-.155-.025-.092.1c-1.916 1.858-3.42 4.504-4.216 7.281-.395-.066-3.141-.407-3.56-.45-.036-2.878-.81-5.824-2.18-8.115l-.068-.13-.145-.007c-.991-.125-2.492-.125-3.462 0l-.154.007-.068.13c-1.359 2.267-2.126 5.212-2.175 8.106-.4.052-3.19.393-3.593.46-.799-2.792-2.306-5.449-4.214-7.297l-.106-.108-.156.023c-1.027.153-2.448.534-3.326.891l-.132.058-.052.134a16 16 0 0 0-.553 4.195c0 1.404.224 2.848.553 4.224-.349.15-3.029 1.304-3.389 1.449-1.503-2.472-3.63-4.64-5.941-5.943l-.126-.074-.145.05c-.888.389-2.173 1.13-2.987 1.742l-.126.077v.383c0 2.591.802 5.442 2.181 7.913-.3.25-2.316 1.826-2.619 2.07-2.076-2.007-4.702-3.55-7.293-4.221l-.132-.027-.1.094c-.795.596-1.864 1.643-2.475 2.437l-.089.114.033.139c.648 2.572 2.192 5.205 4.195 7.3-.219.307-1.975 2.593-2.219 2.91-2.512-1.405-5.437-2.234-8.117-2.196l-.135.006-.088.119c-.586.78-1.328 2.04-1.734 3l-.058.126.071.13c1.284 2.305 3.459 4.458 5.94 5.964-.135.353-1.152 2.834-1.308 3.194-2.852-.707-5.892-.715-8.43.024l-.135.035-.05.123c-.376.889-.762 2.29-.91 3.347l-.018.145.102.111c1.852 1.904 4.51 3.41 7.288 4.181-.058.393-.416 3.137-.466 3.514-2.888.055-5.86.817-8.128 2.179l-.125.071-.013.148a16 16 0 0 0-.095 1.74c0 .62.037 1.232.095 1.726l.013.142.125.065c2.268 1.358 5.215 2.136 8.12 2.178.058.398.444 3.215.494 3.602-2.786.818-5.423 2.342-7.275 4.244l-.1.118.013.128c.162 1.042.543 2.476.903 3.34l.056.13.132.043c2.57.734 5.61.703 8.433 0 .144.357 1.236 2.852 1.386 3.212-2.47 1.48-4.634 3.62-5.942 5.933l-.06.13.047.132c.379.908 1.136 2.193 1.739 2.995l.09.115.13.005c2.653.037 5.584-.748 8.13-2.153.236.299 1.956 2.538 2.182 2.844-1.998 2.044-3.55 4.666-4.21 7.277l-.036.133.086.114c.61.782 1.665 1.828 2.442 2.46l.115.098.137-.046c2.575-.64 5.19-2.174 7.294-4.187.318.246 2.544 1.959 2.872 2.202-1.37 2.514-2.168 5.381-2.168 7.991v.293l.13.098c.774.589 2.038 1.31 2.982 1.734l.13.047.136-.067c2.32-1.294 4.463-3.466 5.966-5.968a961 961 0 0 0 3.15 1.277c-.349 1.378-.55 2.799-.55 4.199 0 1.468.192 2.903.565 4.194l.033.136.143.053c.879.376 2.293.76 3.33.928l.155.021.1-.115c1.922-1.868 3.422-4.525 4.172-7.275.404.066 3.215.464 3.608.506.056 2.902.836 5.855 2.196 8.106l.06.124.156.018c.999.128 2.483.128 3.46 0l.143-.018.07-.124c1.351-2.25 2.126-5.208 2.2-8.123.391-.054 3.025-.423 3.418-.489.776 2.797 2.287 5.43 4.208 7.296l.105.094.128-.01c1.05-.166 2.472-.535 3.356-.895l.126-.063.044-.13c.373-1.3.542-2.726.542-4.191 0-1.418-.2-2.864-.542-4.255.361-.136 2.914-1.241 3.272-1.401 1.504 2.479 3.641 4.65 5.946 5.953l.115.057.136-.05c.917-.378 2.213-1.125 3.01-1.747l.114-.067s.01-.307.01-.392c0-2.555-.81-5.407-2.154-7.907.301-.239 2.41-1.878 2.71-2.12 2.107 2 4.732 3.54 7.307 4.206l.137.037.106-.098c.785-.616 1.854-1.673 2.466-2.438l.095-.126-.048-.125c-.64-2.57-2.172-5.2-4.18-7.299.233-.309 1.935-2.544 2.164-2.861 2.55 1.404 5.48 2.207 8.117 2.151h.146l.086-.106c.63-.805 1.358-2.064 1.736-3.016l.06-.12-.07-.128c-1.259-2.265-3.415-4.422-5.884-5.975.143-.354 1.152-2.818 1.301-3.171 2.8.72 5.84.744 8.398 0l.124-.043.057-.127c.375-.902.756-2.3.916-3.336l.016-.144-.108-.11c-1.853-1.922-4.495-3.41-7.25-4.2.06-.384.434-3.026.473-3.416 2.918-.05 5.885-.828 8.146-2.192l.115-.072.01-.154c.069-.48.094-1.11.094-1.729 0-.622-.025-1.233-.093-1.718" style="fill:currentColor"/></svg>